<?xml version="1.0"?>
<!DOCTYPE svg PUBLIC "-//W3C//DTD SVG 1.1//EN" "http://www.w3.org/Graphics/SVG/1.1/DTD/svg11.dtd">
<svg width="15.401783439490446mm" height="12.531295116772823mm" viewBox="0 0 15.401783439490446 12.531295116772823" xmlns="http://www.w3.org/2000/svg" version="1.1">
<g id="Sketch" transform="translate(0.172229,9.662675) scale(1,-1)">
<path id="Sketch_w0000"  d="M -0.02123142250530785 0.0 L 3.56687898089172 9.511677282377919 L 4.900212314225053 9.511677282377919 L 8.721868365180468 0.0 L 7.312101910828026 0.0 L 6.225053078556263 2.989384288747346 L 2.3184713375796178 2.989384288747346 L 1.2951167728237791 0.0 L -0.02123142250530785 0.0 " stroke="#000000" stroke-width="0.35 px" style="stroke-width:0.35;stroke-miterlimit:4;stroke-dasharray:none;stroke-linecap:square;fill:none;fill-opacity:1;fill-rule: evenodd"/>
<path id="Sketch_w0001"  d="M 2.6751592356687897 4.076433121019108 L 5.8428874734607215 4.076433121019108 L 4.86624203821656 6.445859872611464 Q 4.420382165605096 7.630573248407643 4.203821656050955 8.424628450106157 Q 4.025477707006369 7.507430997876858 3.70276008492569 6.615711252653928 L 2.6751592356687897 4.076433121019108 " stroke="#000000" stroke-width="0.35 px" style="stroke-width:0.35;stroke-miterlimit:4;stroke-dasharray:none;stroke-linecap:square;fill:none;fill-opacity:1;fill-rule: evenodd"/>
<path id="Sketch_w0002"  d="M 9.346072186836517 -0.5435244161358811 L 10.46284501061571 -0.8152866242038217 Q 10.535031847133759 -1.2101910828025477 10.853503184713375 -1.3885350318471337 Q 11.278131634819532 -1.6305732484076434 12.016985138004246 -1.6305732484076434 Q 12.815286624203821 -1.6305732484076434 13.248407643312103 -1.3375796178343948 Q 13.681528662420382 -1.048832271762208 13.834394904458598 -0.5265392781316348 Q 13.91932059447983 -0.208067940552017 13.915074309978769 0.8152866242038217 Q 13.16348195329087 0.0 12.042462845010615 0.0 Q 10.645435244161359 0.0 9.881104033970276 1.0658174097664543 Q 9.116772823779193 2.1358811040339702 9.116772823779193 3.626326963906582 Q 9.116772823779193 4.653927813163482 9.464968152866241 5.520169851380042 Q 9.817409766454352 6.3906581740976645 10.484076433121018 6.861995753715499 Q 11.150743099787686 7.337579617834395 12.046709129511678 7.337579617834395 Q 13.244161358811041 7.337579617834395 14.021231422505307 6.250530785562632 L 14.021231422505307 7.065817409766455 L 15.07855626326964 7.065817409766455 L 15.07855626326964 1.0488322717622083 Q 15.07855626326964 -0.5732484076433121 14.755838641188959 -1.2526539278131634 Q 14.437367303609342 -1.9320594479830149 13.736730360934182 -2.3227176220806793 Q 13.040339702760084 -2.7176220806794054 12.021231422505307 -2.7176220806794054 Q 10.81104033970276 -2.7176220806794054 10.063694267515924 -2.1740976645435244 Q 9.320594479830149 -1.634819532908705 9.346072186836517 -0.5435244161358811 " stroke="#000000" stroke-width="0.35 px" style="stroke-width:0.35;stroke-miterlimit:4;stroke-dasharray:none;stroke-linecap:square;fill:none;fill-opacity:1;fill-rule: evenodd"/>
<path id="Sketch_w0003"  d="M 10.297239915074309 3.715498938428875 Q 10.297239915074309 2.343949044585987 10.823779193205944 1.7154989384288748 Q 11.354564755838641 1.0870488322717622 12.148619957537155 1.0870488322717622 Q 12.938428874734607 1.0870488322717622 13.473460721868365 1.7112526539278132 Q 14.008492569002122 2.3397027600849256 14.008492569002122 3.6772823779193207 Q 14.008492569002122 4.951167728237792 13.456475583864119 5.600849256900212 Q 12.908704883227177 6.250530785562632 12.13163481953291 6.250530785562632 Q 11.367303609341825 6.250530785562632 10.832271762208068 5.6093418259023355 Q 10.297239915074309 4.9723991507431 10.297239915074309 3.715498938428875 " stroke="#000000" stroke-width="0.35 px" style="stroke-width:0.35;stroke-miterlimit:4;stroke-dasharray:none;stroke-linecap:square;fill:none;fill-opacity:1;fill-rule: evenodd"/>
<title>b'Sketch'</title>
</g>
</svg>