999
DXF created by Inkscape
  0
SECTION
  2
HEADER
  9
$ACADVER
  1
AC1014
  9
$HANDSEED
  5
FFFF
  9
$MEASUREMENT
 70
     1
  0
ENDSEC
  0
SECTION
  2
TABLES
  0
TABLE
  2
VPORT
  5
8
330
0
100
AcDbSymbolTable
 70
     4
  0
VPORT
  5
2E
330
8
100
AcDbSymbolTableRecord
100
AcDbViewportTableRecord
  2
*ACTIVE
 70
     0
 10
0.0
 20
0.0
 11
1.0
 21
1.0
 12
210.0
 22
148.5
 13
0.0
 23
0.0
 14
10.0
 24
10.0
 15
10.0
 25
10.0
 16
0.0
 26
0.0
 36
1.0
 17
0.0
 27
0.0
 37
0.0
 40
341.0
 41
1.24
 42
50.0
 43
0.0
 44
0.0
 50
0.0
 51
0.0
 71
     0
 72
   100
 73
     1
 74
     3
 75
     0
 76
     0
 77
     0
 78
     0
  0
ENDTAB
  0
TABLE
  2
LTYPE
  5
5
330
0
100
AcDbSymbolTable
 70
     1
  0
LTYPE
  5
14
330
5
100
AcDbSymbolTableRecord
100
AcDbLinetypeTableRecord
  2
BYBLOCK
 70
     0
  3

 72
    65
 73
     0
 40
0.0
  0
LTYPE
  5
15
330
5
100
AcDbSymbolTableRecord
100
AcDbLinetypeTableRecord
  2
BYLAYER
 70
     0
  3

 72
    65
 73
     0
 40
0.0
  0
LTYPE
  5
16
330
5
100
AcDbSymbolTableRecord
100
AcDbLinetypeTableRecord
  2
CONTINUOUS
 70
     0
  3
Solid line
 72
    65
 73
     0
 40
0.0
  0
ENDTAB
  0
TABLE
  2
LAYER
  5
2
100
AcDbSymbolTable
 70
2
  0
LAYER
  5
50
100
AcDbSymbolTableRecord
100
AcDbLayerTableRecord
  2
0
 70
0
  6
CONTINUOUS
  0
LAYER
  5
51
100
AcDbSymbolTableRecord
100
AcDbLayerTableRecord
  2
Layer_1
 70
0
  6
CONTINUOUS
  0
ENDTAB
  0
TABLE
  2
STYLE
  5
3
330
0
100
AcDbSymbolTable
 70
     1
  0
STYLE
  5
11
330
3
100
AcDbSymbolTableRecord
100
AcDbTextStyleTableRecord
  2
STANDARD
 70
     0
 40
0.0
 41
1.0
 50
0.0
 71
     0
 42
2.5
  3
txt
  4

  0
ENDTAB
  0
TABLE
  2
VIEW
  5
6
330
0
100
AcDbSymbolTable
 70
     0
  0
ENDTAB
  0
TABLE
  2
UCS
  5
7
330
0
100
AcDbSymbolTable
 70
     0
  0
ENDTAB
  0
TABLE
  2
APPID
  5
9
330
0
100
AcDbSymbolTable
 70
     2
  0
APPID
  5
12
330
9
100
AcDbSymbolTableRecord
100
AcDbRegAppTableRecord
  2
ACAD
 70
     0
  0
ENDTAB
  0
TABLE
  2
DIMSTYLE
  5
A
330
0
100
AcDbSymbolTable
 70
     1
  0
DIMSTYLE
105
27
330
A
100
AcDbSymbolTableRecord
100
AcDbDimStyleTableRecord
  2
ISO-25
 70
     0
  3

  4

  5

  6

  7

 40
1.0
 41
2.5
 42
0.625
 43
3.75
 44
1.25
 45
0.0
 46
0.0
 47
0.0
 48
0.0
140
2.5
141
2.5
142
0.0
143
0.03937007874016
144
1.0
145
0.0
146
1.0
147
0.625
 71
     0
 72
     0
 73
     0
 74
     0
 75
     0
 76
     0
 77
     1
 78
     8
170
     0
171
     3
172
     1
173
     0
174
     0
175
     0
176
     0
177
     0
178
     0
270
     2
271
     2
272
     2
273
     2
274
     3
340
11
275
     0
280
     0
281
     0
282
     0
283
     0
284
     8
285
     0
286
     0
287
     3
288
     0
  0
ENDTAB
  0
TABLE
  2
BLOCK_RECORD
  5
1
330
0
100
AcDbSymbolTable
 70
     1
  0
BLOCK_RECORD
  5
1F
330
1
100
AcDbSymbolTableRecord
100
AcDbBlockTableRecord
  2
*MODEL_SPACE
  0
BLOCK_RECORD
  5
1B
330
1
100
AcDbSymbolTableRecord
100
AcDbBlockTableRecord
  2
*PAPER_SPACE
  0
ENDTAB
  0
ENDSEC
  0
SECTION
  2
BLOCKS
  0
BLOCK
  5
20
330
1F
100
AcDbEntity
  8
0
100
AcDbBlockBegin
  2
*MODEL_SPACE
 70
     0
 10
0.0
 20
0.0
 30
0.0
  3
*MODEL_SPACE
  1

  0
ENDBLK
  5
21
330
1F
100
AcDbEntity
  8
0
100
AcDbBlockEnd
  0
BLOCK
  5
1C
330
1B
100
AcDbEntity
 67
     1
  8
0
100
AcDbBlockBegin
  2
*PAPER_SPACE
  1

  0
ENDBLK
  5
1D
330
1B
100
AcDbEntity
 67
     1
  8
0
100
AcDbBlockEnd
  0
ENDSEC
  0
SECTION
  2
ENTITIES
  0
LWPOLYLINE
  5
100
100
AcDbEntity
  8
Layer_1
 62
7
100
AcDbPolyline
 90
121
 70
0
 10
6.835069
 20
33.128044
 30
0.0
 10
8.006436
 20
32.883426
 30
0.0
 10
9.370703
 20
32.700828
 30
0.0
 10
10.927876
 20
32.580257
 30
0.0
 10
12.677950
 20
32.521707
 30
0.0
 10
13.287764
 20
28.394469
 30
0.0
 10
13.904445
 20
23.343956
 30
0.0
 10
14.527998
 20
17.370167
 30
0.0
 10
15.158418
 20
10.473099
 30
0.0
 10
14.193791
 20
9.728963
 30
0.0
 10
13.229167
 20
8.984800
 30
0.0
 10
12.264540
 20
8.240664
 30
0.0
 10
11.299912
 20
7.496529
 30
0.0
 10
10.335319
 20
6.590455
 30
0.0
 10
9.646310
 20
5.581059
 30
0.0
 10
9.232889
 20
4.468285
 30
0.0
 10
9.095051
 20
3.252189
 30
0.0
 10
9.224275
 20
1.831087
 30
0.0
 10
9.611860
 20
0.544323
 30
0.0
 10
10.257804
 20
-0.608046
 30
0.0
 10
11.162109
 20
-1.626078
 30
0.0
 10
12.269738
 20
-2.458070
 30
0.0
 10
13.525486
 20
-3.052345
 30
0.0
 10
14.929352
 20
-3.408933
 30
0.0
 10
16.481335
 20
-3.527776
 30
0.0
 10
19.030733
 20
-3.314191
 30
0.0
 10
21.442310
 20
-2.673377
 30
0.0
 10
23.716062
 20
-1.605392
 30
0.0
 10
25.851996
 20
-0.110235
 30
0.0
 10
27.757157
 20
1.743232
 30
0.0
 10
29.117976
 20
3.775824
 30
0.0
 10
29.934456
 20
5.987572
 30
0.0
 10
30.206597
 20
8.378474
 30
0.0
 10
30.165277
 20
9.577382
 30
0.0
 10
30.041263
 20
11.299925
 30
0.0
 10
29.834549
 20
13.546132
 30
0.0
 10
29.545139
 20
16.315979
 30
0.0
 10
29.173091
 20
19.609479
 30
0.0
 10
28.718346
 20
23.426639
 30
0.0
 10
28.180902
 20
27.767462
 30
0.0
 10
27.560764
 20
32.631951
 30
0.0
 10
29.200650
 20
32.697390
 30
0.0
 10
31.198814
 20
32.783510
 30
0.0
 10
33.555251
 20
32.890315
 30
0.0
 10
36.269964
 20
33.017800
 30
0.0
 10
36.573150
 20
30.688899
 30
0.0
 10
36.931448
 20
27.836355
 30
0.0
 10
37.344852
 20
24.460170
 30
0.0
 10
37.813367
 20
20.560336
 30
0.0
 10
38.020089
 20
16.977426
 30
0.0
 10
38.364606
 20
12.622814
 30
0.0
 10
38.846912
 20
7.496529
 30
0.0
 10
39.467011
 20
1.598536
 30
0.0
 10
40.307633
 20
-0.837154
 30
0.0
 10
41.782136
 20
-2.576942
 30
0.0
 10
43.890531
 20
-3.620797
 30
0.0
 10
46.632811
 20
-3.968749
 30
0.0
 10
48.100434
 20
-3.851626
 30
0.0
 10
49.471586
 20
-3.500203
 30
0.0
 10
50.746265
 20
-2.914536
 30
0.0
 10
51.924478
 20
-2.094624
 30
0.0
 10
52.913229
 20
-1.092086
 30
0.0
 10
53.619476
 20
0.041347
 30
0.0
 10
54.043222
 20
1.305702
 30
0.0
 10
54.184460
 20
2.700953
 30
0.0
 10
53.998433
 20
5.994458
 30
0.0
 10
53.440333
 20
12.126723
 30
0.0
 10
52.510154
 20
21.097766
 30
0.0
 10
51.207899
 20
32.907558
 30
0.0
 10
52.241436
 20
32.604373
 30
0.0
 10
53.412771
 20
32.080712
 30
0.0
 10
54.721904
 20
31.336577
 30
0.0
 10
56.168835
 20
30.371967
 30
0.0
 10
57.508984
 20
29.503786
 30
0.0
 10
58.773337
 20
28.883665
 30
0.0
 10
59.961890
 20
28.511600
 30
0.0
 10
61.074653
 20
28.387592
 30
0.0
 10
62.521595
 20
28.513322
 30
0.0
 10
63.885854
 20
28.890554
 30
0.0
 10
65.167428
 20
29.519289
 30
0.0
 10
66.366319
 20
30.399528
 30
0.0
 10
67.379178
 20
31.455432
 30
0.0
 10
68.102647
 20
32.611256
 30
0.0
 10
68.536730
 20
33.866998
 30
0.0
 10
68.681422
 20
35.222661
 30
0.0
 10
68.588405
 20
36.218273
 30
0.0
 10
68.309352
 20
37.220789
 30
0.0
 10
67.844264
 20
38.230210
 30
0.0
 10
67.193140
 20
39.246535
 30
0.0
 10
63.792837
 20
42.526239
 30
0.0
 10
59.104064
 20
44.868895
 30
0.0
 10
53.126823
 20
46.274503
 30
0.0
 10
45.861111
 20
46.743063
 30
0.0
 10
43.382379
 20
46.729262
 30
0.0
 10
40.355870
 20
46.687911
 30
0.0
 10
36.781576
 20
46.619017
 30
0.0
 10
32.659503
 20
46.522582
 30
0.0
 10
28.537470
 20
46.426093
 30
0.0
 10
24.963193
 20
46.357183
 30
0.0
 10
21.936670
 20
46.315849
 30
0.0
 10
19.457899
 20
46.302104
 30
0.0
 10
18.462295
 20
46.308962
 30
0.0
 10
17.239296
 20
46.329621
 30
0.0
 10
15.788902
 20
46.364080
 30
0.0
 10
14.111111
 20
46.412338
 30
0.0
 10
12.433382
 20
46.460544
 30
0.0
 10
10.983008
 20
46.494986
 30
0.0
 10
9.759987
 20
46.515673
 30
0.0
 10
8.764321
 20
46.522588
 30
0.0
 10
7.181336
 20
46.407150
 30
0.0
 10
5.739576
 20
46.060909
 30
0.0
 10
4.439042
 20
45.483866
 30
0.0
 10
3.279730
 20
44.676016
 30
0.0
 10
2.327199
 20
43.671748
 30
0.0
 10
1.646806
 20
42.505575
 30
0.0
 10
1.238549
 20
41.177496
 30
0.0
 10
1.102431
 20
39.687518
 30
0.0
 10
1.460757
 20
37.375839
 30
0.0
 10
2.535640
 20
35.512035
 30
0.0
 10
4.327076
 20
34.096106
 30
0.0
 10
6.835069
 20
33.128044
 30
0.0
  0
ENDSEC
  0
SECTION
  2
OBJECTS
  0
DICTIONARY
  5
C
330
0
100
AcDbDictionary
  3
ACAD_GROUP
350
D
  3
ACAD_MLINESTYLE
350
17
  0
DICTIONARY
  5
D
330
C
100
AcDbDictionary
  0
DICTIONARY
  5
1A
330
C
100
AcDbDictionary
  0
DICTIONARY
  5
17
330
C
100
AcDbDictionary
  3
STANDARD
350
18
  0
DICTIONARY
  5
19
330
C
100
AcDbDictionary
  0
ENDSEC
  0
EOF
