999
"DXF R12 Output" (www.mydxf.blogspot.com)
 0 
SECTION
 2 
HEADER
 9 
$ACADVER
 1 
AC1009
 9 
$EXTMIN
 10 
 0 
 20 
 0 
 9 
$EXTMAX
 10 
 8.5 
 20 
 11 
 0 
ENDSEC
 0 
SECTION
 2 
ENTITIES
0
LINE
8
Layer 1
10
39.192100
20
-22.632900
11
38.954602
21
-22.364956
0
LINE
8
Layer 1
10
38.954602
20
-22.364956
11
38.876251
21
-21.825116
0
LINE
8
Layer 1
10
38.876251
20
-21.825116
11
38.961034
21
-21.183387
0
LINE
8
Layer 1
10
38.961034
20
-21.183387
11
39.261730
21
-20.367786
0
LINE
8
Layer 1
10
39.261730
20
-20.367786
11
39.483963
21
-19.857653
0
LINE
8
Layer 1
10
39.483963
20
-19.857653
11
39.218276
21
-19.621075
0
LINE
8
Layer 1
10
39.218276
20
-19.621075
11
38.860727
21
-19.038501
0
LINE
8
Layer 1
10
38.860727
20
-19.038501
11
38.848373
21
-18.217745
0
LINE
8
Layer 1
10
38.848373
20
-18.217745
11
38.880265
21
-17.738967
0
LINE
8
Layer 1
10
38.880265
20
-17.738967
11
38.704499
21
-17.188085
0
LINE
8
Layer 1
10
38.704499
20
-17.188085
11
38.381025
21
-15.613605
0
LINE
8
Layer 1
10
38.381025
20
-15.613605
11
38.228861
21
-13.556002
0
LINE
8
Layer 1
10
38.228861
20
-13.556002
11
38.278209
21
-12.178725
0
LINE
8
Layer 1
10
38.278209
20
-12.178725
11
38.427674
21
-10.013265
0
LINE
8
Layer 1
10
38.427674
20
-10.013265
11
38.558966
21
-8.295825
0
LINE
8
Layer 1
10
38.558966
20
-8.295825
11
38.822852
21
-7.399770
0
LINE
8
Layer 1
10
38.822852
20
-7.399770
11
39.068548
21
-6.299210
0
LINE
8
Layer 1
10
39.068548
20
-6.299210
11
38.926097
21
-5.527930
0
LINE
8
Layer 1
10
38.926097
20
-5.527930
11
38.431224
21
-4.188910
0
LINE
8
Layer 1
10
38.431224
20
-4.188910
11
37.919242
21
-3.070700
0
LINE
8
Layer 1
10
37.919242
20
-3.070700
11
37.437520
21
-2.389410
0
LINE
8
Layer 1
10
37.437520
20
-2.389410
11
36.350850
21
-2.256269
0
LINE
8
Layer 1
10
36.350850
20
-2.256269
11
34.854789
21
-2.061273
0
LINE
8
Layer 1
10
34.854789
20
-2.061273
11
34.183930
21
-1.774699
0
LINE
8
Layer 1
10
34.183930
20
-1.774699
11
33.443506
21
-1.506887
0
LINE
8
Layer 1
10
33.443506
20
-1.506887
11
33.350170
21
-1.253370
0
LINE
8
Layer 1
10
33.350170
20
-1.253370
11
33.126156
21
-0.791373
0
LINE
8
Layer 1
10
33.126156
20
-0.791373
11
32.902142
21
-0.502821
0
LINE
8
Layer 1
10
32.902142
20
-0.502821
11
32.678696
21
-0.236776
0
LINE
8
Layer 1
10
32.678696
20
-0.236776
11
32.465532
21
0.066479
0
LINE
8
Layer 1
10
32.465532
20
0.066479
11
32.293469
21
0.814064
0
LINE
8
Layer 1
10
32.293469
20
0.814064
11
32.031550
21
1.755686
0
LINE
8
Layer 1
10
32.031550
20
1.755686
11
31.931415
21
1.949211
0
LINE
8
Layer 1
10
31.931415
20
1.949211
11
31.644886
21
2.145680
0
LINE
8
Layer 1
10
31.644886
20
2.145680
11
31.222623
21
2.381513
0
LINE
8
Layer 1
10
31.222623
20
2.381513
11
30.883133
21
2.531500
0
LINE
8
Layer 1
10
30.883133
20
2.531500
11
30.411736
21
2.822630
0
LINE
8
Layer 1
10
30.411736
20
2.822630
11
30.190467
21
3.225233
0
LINE
8
Layer 1
10
30.190467
20
3.225233
11
30.225843
21
3.477099
0
LINE
8
Layer 1
10
30.225843
20
3.477099
11
30.360316
21
3.687953
0
LINE
8
Layer 1
10
30.360316
20
3.687953
11
30.853725
21
3.995310
0
LINE
8
Layer 1
10
30.853725
20
3.995310
11
31.260813
21
4.210716
0
LINE
8
Layer 1
10
31.260813
20
4.210716
11
31.513608
21
4.288479
0
LINE
8
Layer 1
10
31.513608
20
4.288479
11
31.846828
21
4.328919
0
LINE
8
Layer 1
10
31.846828
20
4.328919
11
32.132640
21
4.248940
0
LINE
8
Layer 1
10
32.132640
20
4.248940
11
33.295540
21
3.315550
0
LINE
8
Layer 1
10
33.295540
20
3.315550
11
33.829075
21
2.964951
0
LINE
8
Layer 1
10
33.829075
20
2.964951
11
34.047639
21
2.871612
0
LINE
8
Layer 1
10
34.047639
20
2.871612
11
34.204334
21
2.755514
0
LINE
8
Layer 1
10
34.204334
20
2.755514
11
35.417974
21
1.382424
0
LINE
8
Layer 1
10
35.417974
20
1.382424
11
35.489348
21
0.962695
0
LINE
8
Layer 1
10
35.489348
20
0.962695
11
35.503913
21
0.781107
0
LINE
8
Layer 1
10
35.503913
20
0.781107
11
35.794105
21
0.711289
0
LINE
8
Layer 1
10
35.794105
20
0.711289
11
36.537845
21
0.439207
0
LINE
8
Layer 1
10
36.537845
20
0.439207
11
36.936018
21
0.214493
0
LINE
8
Layer 1
10
36.936018
20
0.214493
11
37.252550
21
0.382218
0
LINE
8
Layer 1
10
37.252550
20
0.382218
11
38.241126
21
0.557568
0
LINE
8
Layer 1
10
38.241126
20
0.557568
11
38.913167
21
0.565188
0
LINE
8
Layer 1
10
38.913167
20
0.565188
11
38.936704
21
0.845084
0
LINE
8
Layer 1
10
38.936704
20
0.845084
11
38.980043
21
1.060826
0
LINE
8
Layer 1
10
38.980043
20
1.060826
11
39.086047
21
1.073430
0
LINE
8
Layer 1
10
39.086047
20
1.073430
11
39.594294
21
0.923189
0
LINE
8
Layer 1
10
39.594294
20
0.923189
11
39.973263
21
0.958549
0
LINE
8
Layer 1
10
39.973263
20
0.958549
11
40.448897
21
0.923494
0
LINE
8
Layer 1
10
40.448897
20
0.923494
11
40.655625
21
0.888335
0
LINE
8
Layer 1
10
40.655625
20
0.888335
11
40.180939
21
1.211891
0
LINE
8
Layer 1
10
40.180939
20
1.211891
11
39.492165
21
1.821265
0
LINE
8
Layer 1
10
39.492165
20
1.821265
11
39.262854
21
2.229117
0
LINE
8
Layer 1
10
39.262854
20
2.229117
11
39.361191
21
2.280480
0
LINE
8
Layer 1
10
39.361191
20
2.280480
11
39.466322
21
2.326683
0
LINE
8
Layer 1
10
39.466322
20
2.326683
11
39.328928
21
2.670900
0
LINE
8
Layer 1
10
39.328928
20
2.670900
11
39.221634
21
3.024857
0
LINE
8
Layer 1
10
39.221634
20
3.024857
11
39.317244
21
3.769320
0
LINE
8
Layer 1
10
39.317244
20
3.769320
11
39.441334
21
4.415577
0
LINE
8
Layer 1
10
39.441334
20
4.415577
11
39.531580
21
4.386858
0
LINE
8
Layer 1
10
39.531580
20
4.386858
11
39.816988
21
4.119797
0
LINE
8
Layer 1
10
39.816988
20
4.119797
11
39.763162
21
4.350271
0
LINE
8
Layer 1
10
39.763162
20
4.350271
11
39.729716
21
4.599810
0
LINE
8
Layer 1
10
39.729716
20
4.599810
11
39.902430
21
5.050630
0
LINE
8
Layer 1
10
39.902430
20
5.050630
11
40.299361
21
5.929033
0
LINE
8
Layer 1
10
40.299361
20
5.929033
11
40.468037
21
6.302389
0
LINE
8
Layer 1
10
40.468037
20
6.302389
11
40.516822
21
5.986423
0
LINE
8
Layer 1
10
40.516822
20
5.986423
11
40.614920
21
5.642581
0
LINE
8
Layer 1
10
40.614920
20
5.642581
11
40.704517
21
5.980253
0
LINE
8
Layer 1
10
40.704517
20
5.980253
11
41.141541
21
7.067743
0
LINE
8
Layer 1
10
41.141541
20
7.067743
11
41.532923
21
7.699160
0
LINE
8
Layer 1
10
41.532923
20
7.699160
11
41.614581
21
7.743417
0
LINE
8
Layer 1
10
41.614581
20
7.743417
11
41.638949
21
7.627797
0
LINE
8
Layer 1
10
41.638949
20
7.627797
11
41.777551
21
7.270300
0
LINE
8
Layer 1
10
41.777551
20
7.270300
11
42.806901
21
6.138970
0
LINE
8
Layer 1
10
42.806901
20
6.138970
11
42.606162
21
6.670918
0
LINE
8
Layer 1
10
42.606162
20
6.670918
11
42.401932
21
7.248067
0
LINE
8
Layer 1
10
42.401932
20
7.248067
11
42.864892
21
6.708474
0
LINE
8
Layer 1
10
42.864892
20
6.708474
11
43.628497
21
5.729926
0
LINE
8
Layer 1
10
43.628497
20
5.729926
11
43.953484
21
5.364007
0
LINE
8
Layer 1
10
43.953484
20
5.364007
11
43.958536
21
4.750462
0
LINE
8
Layer 1
10
43.958536
20
4.750462
11
43.997214
21
4.269314
0
LINE
8
Layer 1
10
43.997214
20
4.269314
11
44.185499
21
4.659618
0
LINE
8
Layer 1
10
44.185499
20
4.659618
11
44.270538
21
4.883632
0
LINE
8
Layer 1
10
44.270538
20
4.883632
11
44.380509
21
4.623954
0
LINE
8
Layer 1
10
44.380509
20
4.623954
11
44.531329
21
3.931891
0
LINE
8
Layer 1
10
44.531329
20
3.931891
11
44.445056
21
3.247824
0
LINE
8
Layer 1
10
44.445056
20
3.247824
11
44.354381
21
2.852414
0
LINE
8
Layer 1
10
44.354381
20
2.852414
11
44.586864
21
3.142383
0
LINE
8
Layer 1
10
44.586864
20
3.142383
11
44.786821
21
3.464881
0
LINE
8
Layer 1
10
44.786821
20
3.464881
11
44.738375
21
3.166197
0
LINE
8
Layer 1
10
44.738375
20
3.166197
11
44.501438
21
2.110000
0
LINE
8
Layer 1
10
44.501438
20
2.110000
11
44.130853
21
1.414747
0
LINE
8
Layer 1
10
44.130853
20
1.414747
11
43.425242
21
0.797652
0
LINE
8
Layer 1
10
43.425242
20
0.797652
11
43.065574
21
0.529096
0
LINE
8
Layer 1
10
43.065574
20
0.529096
11
43.251433
21
0.242349
0
LINE
8
Layer 1
10
43.251433
20
0.242349
11
43.600680
21
0.212185
0
LINE
8
Layer 1
10
43.600680
20
0.212185
11
43.797551
21
0.255094
0
LINE
8
Layer 1
10
43.797551
20
0.255094
11
44.150056
21
0.095938
0
LINE
8
Layer 1
10
44.150056
20
0.095938
11
44.514660
21
-0.065951
0
LINE
8
Layer 1
10
44.514660
20
-0.065951
11
44.767208
21
-0.033083
0
LINE
8
Layer 1
10
44.767208
20
-0.033083
11
45.019591
21
0.004086
0
LINE
8
Layer 1
10
45.019591
20
0.004086
11
45.073552
21
-0.247267
0
LINE
8
Layer 1
10
45.073552
20
-0.247267
11
45.309902
21
-0.589509
0
LINE
8
Layer 1
10
45.309902
20
-0.589509
11
45.818475
21
-0.937202
0
LINE
8
Layer 1
10
45.818475
20
-0.937202
11
46.166032
21
-1.351701
0
LINE
8
Layer 1
10
46.166032
20
-1.351701
11
46.359812
21
-1.845144
0
LINE
8
Layer 1
10
46.359812
20
-1.845144
11
46.407052
21
-2.429669
0
LINE
8
Layer 1
10
46.407052
20
-2.429669
11
46.422687
21
-2.935656
0
LINE
8
Layer 1
10
46.422687
20
-2.935656
11
46.585306
21
-3.266466
0
LINE
8
Layer 1
10
46.585306
20
-3.266466
11
47.109672
21
-4.440793
0
LINE
8
Layer 1
10
47.109672
20
-4.440793
11
47.314649
21
-5.809866
0
LINE
8
Layer 1
10
47.314649
20
-5.809866
11
47.463990
21
-6.715722
0
LINE
8
Layer 1
10
47.463990
20
-6.715722
11
47.612371
21
-7.471958
0
LINE
8
Layer 1
10
47.612371
20
-7.471958
11
47.724376
21
-7.847804
0
LINE
8
Layer 1
10
47.724376
20
-7.847804
11
47.811584
21
-8.217414
0
LINE
8
Layer 1
10
47.811584
20
-8.217414
11
47.484019
21
-9.279614
0
LINE
8
Layer 1
10
47.484019
20
-9.279614
11
47.178930
21
-10.260499
0
LINE
8
Layer 1
10
47.178930
20
-10.260499
11
47.119213
21
-11.168084
0
LINE
8
Layer 1
10
47.119213
20
-11.168084
11
47.106767
21
-12.061548
0
LINE
8
Layer 1
10
47.106767
20
-12.061548
11
46.826377
21
-12.296949
0
LINE
8
Layer 1
10
46.826377
20
-12.296949
11
46.488134
21
-12.501140
0
LINE
8
Layer 1
10
46.488134
20
-12.501140
11
45.903548
21
-12.572432
0
LINE
8
Layer 1
10
45.903548
20
-12.572432
11
45.111323
21
-12.532768
0
LINE
8
Layer 1
10
45.111323
20
-12.532768
11
44.795879
21
-12.189965
0
LINE
8
Layer 1
10
44.795879
20
-12.189965
11
44.916169
21
-11.919934
0
LINE
8
Layer 1
10
44.916169
20
-11.919934
11
45.128078
21
-11.680533
0
LINE
8
Layer 1
10
45.128078
20
-11.680533
11
45.265379
21
-11.114670
0
LINE
8
Layer 1
10
45.265379
20
-11.114670
11
45.198120
21
-10.759985
0
LINE
8
Layer 1
10
45.198120
20
-10.759985
11
45.058965
21
-11.114670
0
LINE
8
Layer 1
10
45.058965
20
-11.114670
11
45.012705
21
-11.403511
0
LINE
8
Layer 1
10
45.012705
20
-11.403511
11
44.886866
21
-11.469358
0
LINE
8
Layer 1
10
44.886866
20
-11.469358
11
44.635305
21
-11.096004
0
LINE
8
Layer 1
10
44.635305
20
-11.096004
11
44.498388
21
-10.305458
0
LINE
8
Layer 1
10
44.498388
20
-10.305458
11
44.856990
21
-9.834064
0
LINE
8
Layer 1
10
44.856990
20
-9.834064
11
45.251037
21
-9.479782
0
LINE
8
Layer 1
10
45.251037
20
-9.479782
11
45.125843
21
-9.242495
0
LINE
8
Layer 1
10
45.125843
20
-9.242495
11
44.850140
21
-7.318425
0
LINE
8
Layer 1
10
44.850140
20
-7.318425
11
44.883029
21
-7.021836
0
LINE
8
Layer 1
10
44.883029
20
-7.021836
11
45.036206
21
-6.890667
0
LINE
8
Layer 1
10
45.036206
20
-6.890667
11
45.211491
21
-6.739458
0
LINE
8
Layer 1
10
45.211491
20
-6.739458
11
45.035077
21
-6.502677
0
LINE
8
Layer 1
10
45.035077
20
-6.502677
11
44.688819
21
-5.891647
0
LINE
8
Layer 1
10
44.688819
20
-5.891647
11
44.539336
21
-5.553743
0
LINE
8
Layer 1
10
44.539336
20
-5.553743
11
44.420714
21
-5.548033
0
LINE
8
Layer 1
10
44.420714
20
-5.548033
11
44.360897
21
-6.079375
0
LINE
8
Layer 1
10
44.360897
20
-6.079375
11
44.371089
21
-6.493810
0
LINE
8
Layer 1
10
44.371089
20
-6.493810
11
44.216261
21
-6.800325
0
LINE
8
Layer 1
10
44.216261
20
-6.800325
11
44.021804
21
-7.080924
0
LINE
8
Layer 1
10
44.021804
20
-7.080924
11
44.190087
21
-8.155074
0
LINE
8
Layer 1
10
44.190087
20
-8.155074
11
44.341646
21
-10.084779
0
LINE
8
Layer 1
10
44.341646
20
-10.084779
11
44.242126
21
-11.954724
0
LINE
8
Layer 1
10
44.242126
20
-11.954724
11
43.916703
21
-13.273936
0
LINE
8
Layer 1
10
43.916703
20
-13.273936
11
43.452839
21
-14.522004
0
LINE
8
Layer 1
10
43.452839
20
-14.522004
11
43.304983
21
-14.940357
0
LINE
8
Layer 1
10
43.304983
20
-14.940357
11
43.361099
21
-15.663844
0
LINE
8
Layer 1
10
43.361099
20
-15.663844
11
43.406407
21
-17.259474
0
LINE
8
Layer 1
10
43.406407
20
-17.259474
11
43.432513
21
-18.077760
0
LINE
8
Layer 1
10
43.432513
20
-18.077760
11
43.482956
21
-18.478647
0
LINE
8
Layer 1
10
43.482956
20
-18.478647
11
43.199561
21
-19.496510
0
LINE
8
Layer 1
10
43.199561
20
-19.496510
11
42.865695
21
-20.542483
0
LINE
8
Layer 1
10
42.865695
20
-20.542483
11
42.986605
21
-20.920700
0
LINE
8
Layer 1
10
42.986605
20
-20.920700
11
43.155693
21
-21.158164
0
LINE
8
Layer 1
10
43.155693
20
-21.158164
11
42.992058
21
-21.281594
0
LINE
8
Layer 1
10
42.992058
20
-21.281594
11
42.865525
21
-21.443967
0
LINE
8
Layer 1
10
42.865525
20
-21.443967
11
42.918333
21
-21.794544
0
LINE
8
Layer 1
10
42.918333
20
-21.794544
11
42.961115
21
-22.231192
0
LINE
8
Layer 1
10
42.961115
20
-22.231192
11
42.178115
21
-22.390064
0
LINE
8
Layer 1
10
42.178115
20
-22.390064
11
41.202425
21
-22.300850
0
LINE
8
Layer 1
10
41.202425
20
-22.300850
11
40.879114
21
-22.238486
0
LINE
8
Layer 1
10
40.879114
20
-22.238486
11
40.464993
21
-22.410045
0
LINE
8
Layer 1
10
40.464993
20
-22.410045
11
39.748604
21
-22.652190
0
LINE
8
Layer 1
10
39.748604
20
-22.652190
11
39.192083
21
-22.632913
0
LINE
8
Layer 1
10
39.192083
20
-22.632913
11
39.192100
21
-22.632900
0
LINE
8
Layer 1
10
42.743390
20
-22.091739
11
42.794816
21
-21.807287
0
LINE
8
Layer 1
10
42.794816
20
-21.807287
11
42.674141
21
-21.466064
0
LINE
8
Layer 1
10
42.674141
20
-21.466064
11
42.262839
21
-21.375267
0
LINE
8
Layer 1
10
42.262839
20
-21.375267
11
41.774476
21
-21.264353
0
LINE
8
Layer 1
10
41.774476
20
-21.264353
11
41.563998
21
-21.025540
0
LINE
8
Layer 1
10
41.563998
20
-21.025540
11
41.492215
21
-20.931398
0
LINE
8
Layer 1
10
41.492215
20
-20.931398
11
41.355473
21
-21.252348
0
LINE
8
Layer 1
10
41.355473
20
-21.252348
11
41.265593
21
-21.766427
0
LINE
8
Layer 1
10
41.265593
20
-21.766427
11
41.347161
21
-22.078334
0
LINE
8
Layer 1
10
41.347161
20
-22.078334
11
41.625026
21
-22.219382
0
LINE
8
Layer 1
10
41.625026
20
-22.219382
11
42.124034
21
-22.220880
0
LINE
8
Layer 1
10
42.124034
20
-22.220880
11
42.743390
21
-22.091738
0
LINE
8
Layer 1
10
42.743390
20
-22.091738
11
42.743390
21
-22.091739
0
LINE
8
Layer 1
10
39.747290
20
-20.140859
11
40.026532
21
-19.692832
0
LINE
8
Layer 1
10
40.026532
20
-19.692832
11
40.510270
21
-19.100580
0
LINE
8
Layer 1
10
40.510270
20
-19.100580
11
41.280272
21
-18.896771
0
LINE
8
Layer 1
10
41.280272
20
-18.896771
11
41.676004
21
-18.894513
0
LINE
8
Layer 1
10
41.676004
20
-18.894513
11
41.466494
21
-18.710194
0
LINE
8
Layer 1
10
41.466494
20
-18.710194
11
40.929987
21
-18.525878
0
LINE
8
Layer 1
10
40.929987
20
-18.525878
11
40.508009
21
-18.575531
0
LINE
8
Layer 1
10
40.508009
20
-18.575531
11
40.186544
21
-18.797993
0
LINE
8
Layer 1
10
40.186544
20
-18.797993
11
39.457897
21
-20.202388
0
LINE
8
Layer 1
10
39.457897
20
-20.202388
11
39.115534
21
-21.106670
0
LINE
8
Layer 1
10
39.115534
20
-21.106670
11
39.151450
21
-21.128392
0
LINE
8
Layer 1
10
39.151450
20
-21.128392
11
39.337422
21
-20.803354
0
LINE
8
Layer 1
10
39.337422
20
-20.803354
11
39.747285
21
-20.140965
0
LINE
8
Layer 1
10
39.747285
20
-20.140965
11
39.747290
21
-20.140859
0
LINE
8
Layer 1
10
42.715290
20
-21.168619
11
42.829333
21
-20.990935
0
LINE
8
Layer 1
10
42.829333
20
-20.990935
11
42.719072
21
-20.763978
0
LINE
8
Layer 1
10
42.719072
20
-20.763978
11
42.501609
21
-20.810116
0
LINE
8
Layer 1
10
42.501609
20
-20.810116
11
42.018809
21
-20.951870
0
LINE
8
Layer 1
10
42.018809
20
-20.951870
11
41.638907
21
-20.997186
0
LINE
8
Layer 1
10
41.638907
20
-20.997186
11
42.068347
21
-21.183348
0
LINE
8
Layer 1
10
42.068347
20
-21.183348
11
42.715297
21
-21.168619
0
LINE
8
Layer 1
10
42.715297
20
-21.168619
11
42.715290
21
-21.168619
0
LINE
8
Layer 1
10
42.163540
20
-20.676602
11
42.648414
21
-20.433922
0
LINE
8
Layer 1
10
42.648414
20
-20.433922
11
43.312067
21
-18.489672
0
LINE
8
Layer 1
10
43.312067
20
-18.489672
11
43.318756
21
-18.192221
0
LINE
8
Layer 1
10
43.318756
20
-18.192221
11
42.684050
21
-18.023424
0
LINE
8
Layer 1
10
42.684050
20
-18.023424
11
41.957924
21
-17.888437
0
LINE
8
Layer 1
10
41.957924
20
-17.888437
11
41.906689
21
-18.653372
0
LINE
8
Layer 1
10
41.906689
20
-18.653372
11
41.838597
21
-19.735232
0
LINE
8
Layer 1
10
41.838597
20
-19.735232
11
41.771601
21
-20.127258
0
LINE
8
Layer 1
10
41.771601
20
-20.127258
11
42.061793
21
-20.168541
0
LINE
8
Layer 1
10
42.061793
20
-20.168541
11
42.310699
21
-20.240587
0
LINE
8
Layer 1
10
42.310699
20
-20.240587
11
42.142641
21
-20.397039
0
LINE
8
Layer 1
10
42.142641
20
-20.397039
11
41.768017
21
-20.467225
0
LINE
8
Layer 1
10
41.768017
20
-20.467225
11
41.478161
21
-20.514917
0
LINE
8
Layer 1
10
41.478161
20
-20.514917
11
41.499105
21
-20.665700
0
LINE
8
Layer 1
10
41.499105
20
-20.665700
11
41.685724
21
-20.759657
0
LINE
8
Layer 1
10
41.685724
20
-20.759657
11
42.163532
21
-20.676594
0
LINE
8
Layer 1
10
42.163532
20
-20.676594
11
42.163540
21
-20.676602
0
LINE
8
Layer 1
10
39.729420
20
-19.098862
11
40.228938
21
-18.492960
0
LINE
8
Layer 1
10
40.228938
20
-18.492960
11
40.710616
21
-18.181742
0
LINE
8
Layer 1
10
40.710616
20
-18.181742
11
41.279000
21
-18.184564
0
LINE
8
Layer 1
10
41.279000
20
-18.184564
11
41.600622
21
-18.204894
0
LINE
8
Layer 1
10
41.600622
20
-18.204894
11
41.610966
21
-18.062980
0
LINE
8
Layer 1
10
41.610966
20
-18.062980
11
41.514946
21
-17.231441
0
LINE
8
Layer 1
10
41.514946
20
-17.231441
11
41.360350
21
-16.466061
0
LINE
8
Layer 1
10
41.360350
20
-16.466061
11
40.771845
21
-16.366129
0
LINE
8
Layer 1
10
40.771845
20
-16.366129
11
39.960240
21
-16.461348
0
LINE
8
Layer 1
10
39.960240
20
-16.461348
11
39.503882
21
-16.796989
0
LINE
8
Layer 1
10
39.503882
20
-16.796989
11
39.153652
21
-17.588048
0
LINE
8
Layer 1
10
39.153652
20
-17.588048
11
39.006627
21
-18.883299
0
LINE
8
Layer 1
10
39.006627
20
-18.883299
11
39.127826
21
-19.326214
0
LINE
8
Layer 1
10
39.127826
20
-19.326214
11
39.363840
21
-19.496538
0
LINE
8
Layer 1
10
39.363840
20
-19.496538
11
39.729422
21
-19.098896
0
LINE
8
Layer 1
10
39.729422
20
-19.098896
11
39.729420
21
-19.098862
0
LINE
8
Layer 1
10
41.459740
20
-15.744272
11
41.261414
21
-14.936169
0
LINE
8
Layer 1
10
41.261414
20
-14.936169
11
41.111754
21
-14.445422
0
LINE
8
Layer 1
10
41.111754
20
-14.445422
11
41.377985
21
-13.520462
0
LINE
8
Layer 1
10
41.377985
20
-13.520462
11
41.675014
21
-12.213577
0
LINE
8
Layer 1
10
41.675014
20
-12.213577
11
41.645069
21
-11.216472
0
LINE
8
Layer 1
10
41.645069
20
-11.216472
11
41.591831
21
-10.632560
0
LINE
8
Layer 1
10
41.591831
20
-10.632560
11
41.944072
21
-10.763395
0
LINE
8
Layer 1
10
41.944072
20
-10.763395
11
42.679353
21
-10.877884
0
LINE
8
Layer 1
10
42.679353
20
-10.877884
11
43.654786
21
-10.601146
0
LINE
8
Layer 1
10
43.654786
20
-10.601146
11
43.561446
21
-10.570361
0
LINE
8
Layer 1
10
43.561446
20
-10.570361
11
42.527956
21
-10.778676
0
LINE
8
Layer 1
10
42.527956
20
-10.778676
11
41.791266
21
-10.563334
0
LINE
8
Layer 1
10
41.791266
20
-10.563334
11
41.563448
21
-10.327426
0
LINE
8
Layer 1
10
41.563448
20
-10.327426
11
41.732003
21
-10.273283
0
LINE
8
Layer 1
10
41.732003
20
-10.273283
11
42.441612
21
-10.362852
0
LINE
8
Layer 1
10
42.441612
20
-10.362852
11
43.132093
21
-10.286632
0
LINE
8
Layer 1
10
43.132093
20
-10.286632
11
43.331463
21
-10.197511
0
LINE
8
Layer 1
10
43.331463
20
-10.197511
11
42.754440
21
-10.218060
0
LINE
8
Layer 1
10
42.754440
20
-10.218060
11
41.936641
21
-10.187441
0
LINE
8
Layer 1
10
41.936641
20
-10.187441
11
41.742540
21
-9.970201
0
LINE
8
Layer 1
10
41.742540
20
-9.970201
11
41.737621
21
-9.870488
0
LINE
8
Layer 1
10
41.737621
20
-9.870488
11
41.521817
21
-9.985978
0
LINE
8
Layer 1
10
41.521817
20
-9.985978
11
41.255249
21
-10.061123
0
LINE
8
Layer 1
10
41.255249
20
-10.061123
11
40.603512
21
-9.911307
0
LINE
8
Layer 1
10
40.603512
20
-9.911307
11
39.730327
21
-9.726840
0
LINE
8
Layer 1
10
39.730327
20
-9.726840
11
39.367422
21
-9.779182
0
LINE
8
Layer 1
10
39.367422
20
-9.779182
11
39.792375
21
-9.886045
0
LINE
8
Layer 1
10
39.792375
20
-9.886045
11
40.777292
21
-10.102035
0
LINE
8
Layer 1
10
40.777292
20
-10.102035
11
41.302645
21
-10.386837
0
LINE
8
Layer 1
10
41.302645
20
-10.386837
11
41.370330
21
-10.547599
0
LINE
8
Layer 1
10
41.370330
20
-10.547599
11
41.545403
21
-11.264358
0
LINE
8
Layer 1
10
41.545403
20
-11.264358
11
41.555713
21
-12.239429
0
LINE
8
Layer 1
10
41.555713
20
-12.239429
11
41.061237
21
-13.995859
0
LINE
8
Layer 1
10
41.061237
20
-13.995859
11
40.938216
21
-14.282224
0
LINE
8
Layer 1
10
40.938216
20
-14.282224
11
40.597732
21
-14.225622
0
LINE
8
Layer 1
10
40.597732
20
-14.225622
11
40.050717
21
-14.182404
0
LINE
8
Layer 1
10
40.050717
20
-14.182404
11
39.612924
21
-14.311200
0
LINE
8
Layer 1
10
39.612924
20
-14.311200
11
39.364996
21
-14.472616
0
LINE
8
Layer 1
10
39.364996
20
-14.472616
11
39.738239
21
-14.376156
0
LINE
8
Layer 1
10
39.738239
20
-14.376156
11
40.430561
21
-14.334836
0
LINE
8
Layer 1
10
40.430561
20
-14.334836
11
40.966144
21
-14.594325
0
LINE
8
Layer 1
10
40.966144
20
-14.594325
11
40.499928
21
-14.677936
0
LINE
8
Layer 1
10
40.499928
20
-14.677936
11
40.033232
21
-14.640607
0
LINE
8
Layer 1
10
40.033232
20
-14.640607
11
40.516848
21
-14.785167
0
LINE
8
Layer 1
10
40.516848
20
-14.785167
11
41.099288
21
-15.076686
0
LINE
8
Layer 1
10
41.099288
20
-15.076686
11
41.340465
21
-15.653279
0
LINE
8
Layer 1
10
41.340465
20
-15.653279
11
41.463957
21
-16.051314
0
LINE
8
Layer 1
10
41.463957
20
-16.051314
11
41.459743
21
-15.744284
0
LINE
8
Layer 1
10
41.459743
20
-15.744284
11
41.459740
21
-15.744272
0
LINE
8
Layer 1
10
45.633600
20
-12.402700
11
45.493073
21
-12.328030
0
LINE
8
Layer 1
10
45.493073
20
-12.328030
11
45.260245
21
-12.402700
0
LINE
8
Layer 1
10
45.260245
20
-12.402700
11
45.400772
21
-12.477373
0
LINE
8
Layer 1
10
45.400772
20
-12.477373
11
45.633600
21
-12.402700
0
LINE
8
Layer 1
10
45.633600
20
-12.402700
11
45.633600
21
-12.402700
0
LINE
8
Layer 1
10
46.661620
20
-12.213363
11
46.940258
21
-12.024023
0
LINE
8
Layer 1
10
46.940258
20
-12.024023
11
46.928941
21
-11.428992
0
LINE
8
Layer 1
10
46.928941
20
-11.428992
11
46.894410
21
-10.911287
0
LINE
8
Layer 1
10
46.894410
20
-10.911287
11
46.723641
21
-10.847073
0
LINE
8
Layer 1
10
46.723641
20
-10.847073
11
46.380307
21
-10.811761
0
LINE
8
Layer 1
10
46.380307
20
-10.811761
11
46.150476
21
-10.802643
0
LINE
8
Layer 1
10
46.150476
20
-10.802643
11
46.065155
21
-10.945538
0
LINE
8
Layer 1
10
46.065155
20
-10.945538
11
46.337045
21
-11.536527
0
LINE
8
Layer 1
10
46.337045
20
-11.536527
11
46.516626
21
-11.924348
0
LINE
8
Layer 1
10
46.516626
20
-11.924348
11
46.150034
21
-12.151776
0
LINE
8
Layer 1
10
46.150034
20
-12.151776
11
45.970408
21
-12.109146
0
LINE
8
Layer 1
10
45.970408
20
-12.109146
11
45.932175
21
-11.955001
0
LINE
8
Layer 1
10
45.932175
20
-11.955001
11
45.812177
21
-11.431976
0
LINE
8
Layer 1
10
45.812177
20
-11.431976
11
45.745601
21
-11.685216
0
LINE
8
Layer 1
10
45.745601
20
-11.685216
11
45.696761
21
-11.915691
0
LINE
8
Layer 1
10
45.696761
20
-11.915691
11
45.453267
21
-12.055426
0
LINE
8
Layer 1
10
45.453267
20
-12.055426
11
45.112840
21
-12.250213
0
LINE
8
Layer 1
10
45.112840
20
-12.250213
11
45.131738
21
-12.319680
0
LINE
8
Layer 1
10
45.131738
20
-12.319680
11
45.464548
21
-12.178687
0
LINE
8
Layer 1
10
45.464548
20
-12.178687
11
45.781761
21
-12.038717
0
LINE
8
Layer 1
10
45.781761
20
-12.038717
11
45.775935
21
-12.115345
0
LINE
8
Layer 1
10
45.775935
20
-12.115345
11
45.867060
21
-12.302395
0
LINE
8
Layer 1
10
45.867060
20
-12.302395
11
46.190567
21
-12.402701
0
LINE
8
Layer 1
10
46.190567
20
-12.402701
11
46.661612
21
-12.213364
0
LINE
8
Layer 1
10
46.661612
20
-12.213364
11
46.661620
21
-12.213363
0
LINE
8
Layer 1
10
45.176450
20
-12.065679
11
45.396843
21
-11.931394
0
LINE
8
Layer 1
10
45.396843
20
-11.931394
11
45.446920
21
-11.724749
0
LINE
8
Layer 1
10
45.446920
20
-11.724749
11
45.520021
21
-11.360234
0
LINE
8
Layer 1
10
45.520021
20
-11.360234
11
45.491443
21
-11.139257
0
LINE
8
Layer 1
10
45.491443
20
-11.139257
11
45.399472
21
-11.139491
0
LINE
8
Layer 1
10
45.399472
20
-11.139491
11
45.337638
21
-11.402485
0
LINE
8
Layer 1
10
45.337638
20
-11.402485
11
45.050889
21
-11.964392
0
LINE
8
Layer 1
10
45.050889
20
-11.964392
11
44.871826
21
-12.165920
0
LINE
8
Layer 1
10
44.871826
20
-12.165920
11
45.176450
21
-12.065679
0
LINE
8
Layer 1
10
45.176450
20
-12.065679
11
45.176450
21
-12.065679
0
LINE
8
Layer 1
10
44.879965
20
-10.825919
11
44.828296
21
-10.369208
0
LINE
8
Layer 1
10
44.828296
20
-10.369208
11
45.025056
21
-10.498130
0
LINE
8
Layer 1
10
45.025056
20
-10.498130
11
45.413499
21
-10.583616
0
LINE
8
Layer 1
10
45.413499
20
-10.583616
11
45.596262
21
-10.344110
0
LINE
8
Layer 1
10
45.596262
20
-10.344110
11
45.314328
21
-9.715029
0
LINE
8
Layer 1
10
45.314328
20
-9.715029
11
44.696112
21
-10.167992
0
LINE
8
Layer 1
10
44.696112
20
-10.167992
11
44.612367
21
-10.378460
0
LINE
8
Layer 1
10
44.612367
20
-10.378460
11
44.689338
21
-10.805484
0
LINE
8
Layer 1
10
44.689338
20
-10.805484
11
44.867572
21
-11.282631
0
LINE
8
Layer 1
10
44.867572
20
-11.282631
11
44.879962
21
-10.825920
0
LINE
8
Layer 1
10
44.879962
20
-10.825920
11
44.879965
21
-10.825919
0
LINE
8
Layer 1
10
47.116995
20
-9.921471
11
47.658339
21
-8.242171
0
LINE
8
Layer 1
10
47.658339
20
-8.242171
11
47.125227
21
-8.296070
0
LINE
8
Layer 1
10
47.125227
20
-8.296070
11
46.634572
21
-8.336829
0
LINE
8
Layer 1
10
46.634572
20
-8.336829
11
46.219695
21
-8.181530
0
LINE
8
Layer 1
10
46.219695
20
-8.181530
11
45.407017
21
-7.608399
0
LINE
8
Layer 1
10
45.407017
20
-7.608399
11
44.965410
21
-7.259194
0
LINE
8
Layer 1
10
44.965410
20
-7.259194
11
45.045330
21
-8.170263
0
LINE
8
Layer 1
10
45.045330
20
-8.170263
11
45.188705
21
-9.008565
0
LINE
8
Layer 1
10
45.188705
20
-9.008565
11
45.507263
21
-9.626353
0
LINE
8
Layer 1
10
45.507263
20
-9.626353
11
45.863629
21
-10.129202
0
LINE
8
Layer 1
10
45.863629
20
-10.129202
11
46.231631
21
-10.323362
0
LINE
8
Layer 1
10
46.231631
20
-10.323362
11
46.794111
21
-10.354268
0
LINE
8
Layer 1
10
46.794111
20
-10.354268
11
47.116995
21
-9.921472
0
LINE
8
Layer 1
10
47.116995
20
-9.921472
11
47.116995
21
-9.921471
0
LINE
8
Layer 1
10
46.627371
20
-7.647161
11
46.532115
21
-7.180467
0
LINE
8
Layer 1
10
46.532115
20
-7.180467
11
46.388807
21
-6.996793
0
LINE
8
Layer 1
10
46.388807
20
-6.996793
11
46.168653
21
-6.951698
0
LINE
8
Layer 1
10
46.168653
20
-6.951698
11
45.822067
21
-7.040107
0
LINE
8
Layer 1
10
45.822067
20
-7.040107
11
45.636518
21
-7.305099
0
LINE
8
Layer 1
10
45.636518
20
-7.305099
11
45.662540
21
-7.483138
0
LINE
8
Layer 1
10
45.662540
20
-7.483138
11
45.946330
21
-7.699795
0
LINE
8
Layer 1
10
45.946330
20
-7.699795
11
46.444399
21
-7.902312
0
LINE
8
Layer 1
10
46.444399
20
-7.902312
11
46.627371
21
-7.647161
0
LINE
8
Layer 1
10
46.627371
20
-7.647161
11
46.627371
21
-7.647161
0
LINE
8
Layer 1
10
42.346071
20
-7.459517
11
42.670943
21
-7.244166
0
LINE
8
Layer 1
10
42.670943
20
-7.244166
11
42.254730
21
-7.341788
0
LINE
8
Layer 1
10
42.254730
20
-7.341788
11
41.825369
21
-7.497724
0
LINE
8
Layer 1
10
41.825369
20
-7.497724
11
41.340006
21
-7.280283
0
LINE
8
Layer 1
10
41.340006
20
-7.280283
11
40.100666
21
-6.598045
0
LINE
8
Layer 1
10
40.100666
20
-6.598045
11
40.829087
21
-6.716014
0
LINE
8
Layer 1
10
40.829087
20
-6.716014
11
42.207135
21
-6.911598
0
LINE
8
Layer 1
10
42.207135
20
-6.911598
11
43.008217
21
-6.896255
0
LINE
8
Layer 1
10
43.008217
20
-6.896255
11
42.252294
21
-6.780352
0
LINE
8
Layer 1
10
42.252294
20
-6.780352
11
40.705294
21
-6.576356
0
LINE
8
Layer 1
10
40.705294
20
-6.576356
11
39.771904
21
-6.376613
0
LINE
8
Layer 1
10
39.771904
20
-6.376613
11
39.585225
21
-6.336743
0
LINE
8
Layer 1
10
39.585225
20
-6.336743
11
39.734568
21
-6.489964
0
LINE
8
Layer 1
10
39.734568
20
-6.489964
11
40.823964
21
-7.163039
0
LINE
8
Layer 1
10
40.823964
20
-7.163039
11
41.916708
21
-7.621964
0
LINE
8
Layer 1
10
41.916708
20
-7.621964
11
42.346066
21
-7.459514
0
LINE
8
Layer 1
10
42.346066
20
-7.459514
11
42.346071
21
-7.459517
0
LINE
8
Layer 1
10
47.074651
20
-6.419387
11
46.861683
21
-5.865123
0
LINE
8
Layer 1
10
46.861683
20
-5.865123
11
46.400575
21
-5.122253
0
LINE
8
Layer 1
10
46.400575
20
-5.122253
11
45.857713
21
-4.306665
0
LINE
8
Layer 1
10
45.857713
20
-4.306665
11
45.662726
21
-4.262421
0
LINE
8
Layer 1
10
45.662726
20
-4.262421
11
45.507229
21
-4.451933
0
LINE
8
Layer 1
10
45.507229
20
-4.451933
11
45.574387
21
-4.847272
0
LINE
8
Layer 1
10
45.574387
20
-4.847272
11
45.781329
21
-5.518977
0
LINE
8
Layer 1
10
45.781329
20
-5.518977
11
45.930182
21
-6.015510
0
LINE
8
Layer 1
10
45.930182
20
-6.015510
11
46.338074
21
-6.130312
0
LINE
8
Layer 1
10
46.338074
20
-6.130312
11
46.566997
21
-6.279655
0
LINE
8
Layer 1
10
46.566997
20
-6.279655
11
46.718049
21
-6.575887
0
LINE
8
Layer 1
10
46.718049
20
-6.575887
11
46.963685
21
-6.707910
0
LINE
8
Layer 1
10
46.963685
20
-6.707910
11
47.074649
21
-6.419386
0
LINE
8
Layer 1
10
47.074649
20
-6.419386
11
47.074651
21
-6.419387
0
LINE
8
Layer 1
10
45.596271
20
-6.550149
11
45.488084
21
-6.357496
0
LINE
8
Layer 1
10
45.488084
20
-6.357496
11
45.299430
21
-6.023895
0
LINE
8
Layer 1
10
45.299430
20
-6.023895
11
45.058974
21
-5.702857
0
LINE
8
Layer 1
10
45.058974
20
-5.702857
11
44.804895
21
-5.627390
0
LINE
8
Layer 1
10
44.804895
20
-5.627390
11
44.863707
21
-5.968583
0
LINE
8
Layer 1
10
44.863707
20
-5.968583
11
45.152155
21
-6.421337
0
LINE
8
Layer 1
10
45.152155
20
-6.421337
11
45.461123
21
-6.642422
0
LINE
8
Layer 1
10
45.461123
20
-6.642422
11
45.596271
21
-6.550149
0
LINE
8
Layer 1
10
45.596271
20
-6.550149
11
45.596271
21
-6.550149
0
LINE
8
Layer 1
10
40.244951
20
-5.804050
11
39.361218
21
-4.426850
0
LINE
8
Layer 1
10
39.361218
20
-4.426850
11
38.740928
21
-3.440456
0
LINE
8
Layer 1
10
38.740928
20
-3.440456
11
39.369000
21
-4.724231
0
LINE
8
Layer 1
10
39.369000
20
-4.724231
11
40.203588
21
-6.036976
0
LINE
8
Layer 1
10
40.203588
20
-6.036976
11
40.430925
21
-6.117900
0
LINE
8
Layer 1
10
40.430925
20
-6.117900
11
40.244948
21
-5.804053
0
LINE
8
Layer 1
10
40.244948
20
-5.804053
11
40.244951
21
-5.804050
0
LINE
8
Layer 1
10
47.164361
20
-5.576847
11
47.035979
21
-4.678051
0
LINE
8
Layer 1
10
47.035979
20
-4.678051
11
46.764684
21
-3.837237
0
LINE
8
Layer 1
10
46.764684
20
-3.837237
11
46.369351
21
-3.252464
0
LINE
8
Layer 1
10
46.369351
20
-3.252464
11
46.014335
21
-2.994119
0
LINE
8
Layer 1
10
46.014335
20
-2.994119
11
45.903368
21
-3.051542
0
LINE
8
Layer 1
10
45.903368
20
-3.051542
11
46.038013
21
-3.321327
0
LINE
8
Layer 1
10
46.038013
20
-3.321327
11
46.232577
21
-3.852839
0
LINE
8
Layer 1
10
46.232577
20
-3.852839
11
46.467705
21
-4.437264
0
LINE
8
Layer 1
10
46.467705
20
-4.437264
11
46.718933
21
-5.138289
0
LINE
8
Layer 1
10
46.718933
20
-5.138289
11
46.978716
21
-5.776653
0
LINE
8
Layer 1
10
46.978716
20
-5.776653
11
47.108657
21
-5.808947
0
LINE
8
Layer 1
10
47.108657
20
-5.808947
11
47.164350
21
-5.576845
0
LINE
8
Layer 1
10
47.164350
20
-5.576845
11
47.164361
21
-5.576847
0
LINE
8
Layer 1
10
45.068981
20
-2.569167
11
44.986775
21
-1.007847
0
LINE
8
Layer 1
10
44.986775
20
-1.007847
11
44.946214
21
-2.344217
0
LINE
8
Layer 1
10
44.946214
20
-2.344217
11
44.949070
21
-3.718131
0
LINE
8
Layer 1
10
44.949070
20
-3.718131
11
44.741840
21
-4.674227
0
LINE
8
Layer 1
10
44.741840
20
-4.674227
11
44.881266
21
-4.450213
0
LINE
8
Layer 1
10
44.881266
20
-4.450213
11
45.039268
21
-3.917207
0
LINE
8
Layer 1
10
45.039268
20
-3.917207
11
45.068980
21
-2.569173
0
LINE
8
Layer 1
10
45.068980
20
-2.569173
11
45.068981
21
-2.569167
0
LINE
8
Layer 1
10
38.555191
20
-2.527426
11
38.522831
21
-2.695436
0
LINE
8
Layer 1
10
38.522831
20
-2.695436
11
38.555191
21
-2.863446
0
LINE
8
Layer 1
10
38.555191
20
-2.863446
11
38.555191
21
-2.527427
0
LINE
8
Layer 1
10
38.555191
20
-2.527427
11
38.555191
21
-2.527426
0
LINE
8
Layer 1
10
46.267161
20
-2.263594
11
46.094262
21
-1.530032
0
LINE
8
Layer 1
10
46.094262
20
-1.530032
11
45.643851
21
-0.953544
0
LINE
8
Layer 1
10
45.643851
20
-0.953544
11
45.287861
21
-0.763291
0
LINE
8
Layer 1
10
45.287861
20
-0.763291
11
45.126267
21
-0.904601
0
LINE
8
Layer 1
10
45.126267
20
-0.904601
11
45.345971
21
-1.252843
0
LINE
8
Layer 1
10
45.345971
20
-1.252843
11
45.714155
21
-1.676848
0
LINE
8
Layer 1
10
45.714155
20
-1.676848
11
45.818597
21
-2.197838
0
LINE
8
Layer 1
10
45.818597
20
-2.197838
11
45.827976
21
-2.612606
0
LINE
8
Layer 1
10
45.827976
20
-2.612606
11
45.988286
21
-2.748574
0
LINE
8
Layer 1
10
45.988286
20
-2.748574
11
46.211082
21
-2.728771
0
LINE
8
Layer 1
10
46.211082
20
-2.728771
11
46.267161
21
-2.263592
0
LINE
8
Layer 1
10
46.267161
20
-2.263592
11
46.267161
21
-2.263594
0
LINE
8
Layer 1
10
38.749851
20
-1.801543
11
38.583995
21
-2.172738
0
LINE
8
Layer 1
10
38.583995
20
-2.172738
11
38.604231
21
-2.282842
0
LINE
8
Layer 1
10
38.604231
20
-2.282842
11
38.684920
21
-2.098065
0
LINE
8
Layer 1
10
38.684920
20
-2.098065
11
38.749851
21
-1.801543
0
LINE
8
Layer 1
10
38.749851
20
-1.801543
11
38.749851
21
-1.801543
0
LINE
8
Layer 1
10
43.344551
20
-2.025023
11
43.804155
21
-1.684596
0
LINE
8
Layer 1
10
43.804155
20
-1.684596
11
43.393463
21
-1.918950
0
LINE
8
Layer 1
10
43.393463
20
-1.918950
11
42.943782
21
-2.138486
0
LINE
8
Layer 1
10
42.943782
20
-2.138486
11
42.556164
21
-2.089548
0
LINE
8
Layer 1
10
42.556164
20
-2.089548
11
40.665904
21
0.095822
0
LINE
8
Layer 1
10
40.665904
20
0.095822
11
40.129905
21
0.739438
0
LINE
8
Layer 1
10
40.129905
20
0.739438
11
40.180152
21
0.517459
0
LINE
8
Layer 1
10
40.180152
20
0.517459
11
40.565741
21
-0.067051
0
LINE
8
Layer 1
10
40.565741
20
-0.067051
11
41.684094
21
-1.417948
0
LINE
8
Layer 1
10
41.684094
20
-1.417948
11
42.731921
21
-2.322081
0
LINE
8
Layer 1
10
42.731921
20
-2.322081
11
43.344557
21
-2.025025
0
LINE
8
Layer 1
10
43.344557
20
-2.025025
11
43.344551
21
-2.025023
0
LINE
8
Layer 1
10
38.928491
20
-1.108671
11
38.968355
21
-0.119277
0
LINE
8
Layer 1
10
38.968355
20
-0.119277
11
39.023521
21
0.328748
0
LINE
8
Layer 1
10
39.023521
20
0.328748
11
38.915517
21
-0.081941
0
LINE
8
Layer 1
10
38.915517
20
-0.081941
11
38.847854
21
-1.416691
0
LINE
8
Layer 1
10
38.847854
20
-1.416691
11
38.921929
21
-1.619840
0
LINE
8
Layer 1
10
38.921929
20
-1.619840
11
38.928491
21
-1.108671
0
LINE
8
Layer 1
10
38.928491
20
-1.108671
11
38.928491
21
-1.108671
0
LINE
8
Layer 1
10
38.353159
20
-1.426024
11
38.504057
21
-0.996666
0
LINE
8
Layer 1
10
38.504057
20
-0.996666
11
38.607977
21
-0.231286
0
LINE
8
Layer 1
10
38.607977
20
-0.231286
11
38.676687
21
0.310081
0
LINE
8
Layer 1
10
38.676687
20
0.310081
11
37.648647
21
0.293260
0
LINE
8
Layer 1
10
37.648647
20
0.293260
11
37.473263
21
0.128053
0
LINE
8
Layer 1
10
37.473263
20
0.128053
11
37.784901
21
-0.078418
0
LINE
8
Layer 1
10
37.784901
20
-0.078418
11
38.165737
21
-0.304746
0
LINE
8
Layer 1
10
38.165737
20
-0.304746
11
38.143434
21
-0.434888
0
LINE
8
Layer 1
10
38.143434
20
-0.434888
11
37.803090
21
-0.318942
0
LINE
8
Layer 1
10
37.803090
20
-0.318942
11
37.138211
21
-0.184509
0
LINE
8
Layer 1
10
37.138211
20
-0.184509
11
36.974096
21
-0.313131
0
LINE
8
Layer 1
10
36.974096
20
-0.313131
11
36.963355
21
-0.560476
0
LINE
8
Layer 1
10
36.963355
20
-0.560476
11
37.287469
21
-1.100751
0
LINE
8
Layer 1
10
37.287469
20
-1.100751
11
37.759066
21
-1.477827
0
LINE
8
Layer 1
10
37.759066
20
-1.477827
11
38.126965
21
-1.562232
0
LINE
8
Layer 1
10
38.126965
20
-1.562232
11
38.353163
21
-1.426036
0
LINE
8
Layer 1
10
38.353163
20
-1.426036
11
38.353159
21
-1.426024
0
LINE
8
Layer 1
10
36.369509
20
-1.428000
11
36.552960
21
-1.234008
0
LINE
8
Layer 1
10
36.552960
20
-1.234008
11
36.444806
21
-0.920068
0
LINE
8
Layer 1
10
36.444806
20
-0.920068
11
35.950985
21
-0.754907
0
LINE
8
Layer 1
10
35.950985
20
-0.754907
11
35.689967
21
-0.841125
0
LINE
8
Layer 1
10
35.689967
20
-0.841125
11
35.543829
21
-1.025351
0
LINE
8
Layer 1
10
35.543829
20
-1.025351
11
35.621045
21
-1.341643
0
LINE
8
Layer 1
10
35.621045
20
-1.341643
11
36.089491
21
-1.490653
0
LINE
8
Layer 1
10
36.089491
20
-1.490653
11
36.369509
21
-1.428000
0
LINE
8
Layer 1
10
36.369509
20
-1.428000
11
36.369509
21
-1.428000
0
LINE
8
Layer 1
10
34.989199
20
-1.169315
11
35.046750
21
-0.816103
0
LINE
8
Layer 1
10
35.046750
20
-0.816103
11
34.743172
21
-0.497692
0
LINE
8
Layer 1
10
34.743172
20
-0.497692
11
34.232867
21
-0.065192
0
LINE
8
Layer 1
10
34.232867
20
-0.065192
11
33.916255
21
0.199644
0
LINE
8
Layer 1
10
33.916255
20
0.199644
11
33.590809
21
0.100376
0
LINE
8
Layer 1
10
33.590809
20
0.100376
11
33.426477
21
-0.254989
0
LINE
8
Layer 1
10
33.426477
20
-0.254989
11
33.593349
21
-0.699910
0
LINE
8
Layer 1
10
33.593349
20
-0.699910
11
34.150245
21
-1.060325
0
LINE
8
Layer 1
10
34.150245
20
-1.060325
11
34.778579
21
-1.275036
0
LINE
8
Layer 1
10
34.778579
20
-1.275036
11
34.989320
21
-1.169316
0
LINE
8
Layer 1
10
34.989320
20
-1.169316
11
34.989199
21
-1.169315
0
LINE
8
Layer 1
10
43.033959
20
-0.666421
11
43.200882
21
-0.443442
0
LINE
8
Layer 1
10
43.200882
20
-0.443442
11
42.990485
21
-0.536198
0
LINE
8
Layer 1
10
42.990485
20
-0.536198
11
42.762756
21
-0.655412
0
LINE
8
Layer 1
10
42.762756
20
-0.655412
11
42.486453
21
-0.601679
0
LINE
8
Layer 1
10
42.486453
20
-0.601679
11
41.601348
21
-0.139789
0
LINE
8
Layer 1
10
41.601348
20
-0.139789
11
41.223442
21
0.074727
0
LINE
8
Layer 1
10
41.223442
20
0.074727
11
41.153716
21
0.074482
0
LINE
8
Layer 1
10
41.153716
20
0.074482
11
42.676216
21
-0.828778
0
LINE
8
Layer 1
10
42.676216
20
-0.828778
11
43.033961
21
-0.666419
0
LINE
8
Layer 1
10
43.033961
20
-0.666419
11
43.033959
21
-0.666421
0
LINE
8
Layer 1
10
36.096949
20
-0.375165
11
36.429572
21
-0.128989
0
LINE
8
Layer 1
10
36.429572
20
-0.128989
11
36.522080
21
0.144586
0
LINE
8
Layer 1
10
36.522080
20
0.144586
11
36.225660
21
0.343098
0
LINE
8
Layer 1
10
36.225660
20
0.343098
11
35.751951
21
0.431542
0
LINE
8
Layer 1
10
35.751951
20
0.431542
11
35.260011
21
0.400466
0
LINE
8
Layer 1
10
35.260011
20
0.400466
11
34.908900
21
0.240423
0
LINE
8
Layer 1
10
34.908900
20
0.240423
11
34.807545
21
-0.073839
0
LINE
8
Layer 1
10
34.807545
20
-0.073839
11
35.059751
21
-0.326780
0
LINE
8
Layer 1
10
35.059751
20
-0.326780
11
35.533544
21
-0.450016
0
LINE
8
Layer 1
10
35.533544
20
-0.450016
11
36.096950
21
-0.375165
0
LINE
8
Layer 1
10
36.096950
20
-0.375165
11
36.096949
21
-0.375165
0
LINE
8
Layer 1
10
43.105679
20
0.175715
11
42.908098
21
0.502596
0
LINE
8
Layer 1
10
42.908098
20
0.502596
11
42.787169
21
0.746726
0
LINE
8
Layer 1
10
42.787169
20
0.746726
11
42.402932
21
0.853382
0
LINE
8
Layer 1
10
42.402932
20
0.853382
11
42.003568
21
0.791168
0
LINE
8
Layer 1
10
42.003568
20
0.791168
11
41.550636
21
0.877065
0
LINE
8
Layer 1
10
41.550636
20
0.877065
11
41.072491
21
1.031079
0
LINE
8
Layer 1
10
41.072491
20
1.031079
11
40.842380
21
0.920978
0
LINE
8
Layer 1
10
40.842380
20
0.920978
11
40.904514
21
0.716542
0
LINE
8
Layer 1
10
40.904514
20
0.716542
11
41.419809
21
0.516193
0
LINE
8
Layer 1
10
41.419809
20
0.516193
11
42.497409
21
0.185573
0
LINE
8
Layer 1
10
42.497409
20
0.185573
11
43.180003
21
0.006543
0
LINE
8
Layer 1
10
43.180003
20
0.006543
11
43.105682
21
0.175724
0
LINE
8
Layer 1
10
43.105682
20
0.175724
11
43.105679
21
0.175715
0
LINE
8
Layer 1
10
32.963379
20
0.732457
11
33.688447
21
0.998736
0
LINE
8
Layer 1
10
33.688447
20
0.998736
11
34.544920
21
1.332870
0
LINE
8
Layer 1
10
34.544920
20
1.332870
11
34.358241
21
1.845027
0
LINE
8
Layer 1
10
34.358241
20
1.845027
11
34.171562
21
2.455270
0
LINE
8
Layer 1
10
34.171562
20
2.455270
11
34.038857
21
2.600792
0
LINE
8
Layer 1
10
34.038857
20
2.600792
11
33.530057
21
2.494897
0
LINE
8
Layer 1
10
33.530057
20
2.494897
11
33.051493
21
2.455753
0
LINE
8
Layer 1
10
33.051493
20
2.455753
11
33.324309
21
2.643411
0
LINE
8
Layer 1
10
33.324309
20
2.643411
11
33.543347
21
2.799763
0
LINE
8
Layer 1
10
33.543347
20
2.799763
11
33.154245
21
2.726502
0
LINE
8
Layer 1
10
33.154245
20
2.726502
11
32.743364
21
2.615309
0
LINE
8
Layer 1
10
32.743364
20
2.615309
11
32.715432
21
2.755309
0
LINE
8
Layer 1
10
32.715432
20
2.755309
11
32.769164
21
3.128663
0
LINE
8
Layer 1
10
32.769164
20
3.128663
11
32.876180
21
3.352809
0
LINE
8
Layer 1
10
32.876180
20
3.352809
11
32.976823
21
3.427479
0
LINE
8
Layer 1
10
32.976823
20
3.427479
11
32.916888
21
3.502149
0
LINE
8
Layer 1
10
32.916888
20
3.502149
11
32.543124
21
3.812873
0
LINE
8
Layer 1
10
32.543124
20
3.812873
11
32.189628
21
4.069233
0
LINE
8
Layer 1
10
32.189628
20
4.069233
11
32.267447
21
3.875507
0
LINE
8
Layer 1
10
32.267447
20
3.875507
11
32.362708
21
3.684530
0
LINE
8
Layer 1
10
32.362708
20
3.684530
11
32.097577
21
3.916056
0
LINE
8
Layer 1
10
32.097577
20
3.916056
11
31.740476
21
4.162580
0
LINE
8
Layer 1
10
31.740476
20
4.162580
11
31.601121
21
4.030894
0
LINE
8
Layer 1
10
31.601121
20
4.030894
11
31.912606
21
3.770619
0
LINE
8
Layer 1
10
31.912606
20
3.770619
11
32.178143
21
3.523514
0
LINE
8
Layer 1
10
32.178143
20
3.523514
11
31.663788
21
3.764300
0
LINE
8
Layer 1
10
31.663788
20
3.764300
11
31.287913
21
3.974134
0
LINE
8
Layer 1
10
31.287913
20
3.974134
11
31.121783
21
3.919248
0
LINE
8
Layer 1
10
31.121783
20
3.919248
11
31.046792
21
3.802701
0
LINE
8
Layer 1
10
31.046792
20
3.802701
11
31.150773
21
3.687877
0
LINE
8
Layer 1
10
31.150773
20
3.687877
11
31.583972
21
3.420587
0
LINE
8
Layer 1
10
31.583972
20
3.420587
11
31.822841
21
3.239215
0
LINE
8
Layer 1
10
31.822841
20
3.239215
11
31.303009
21
3.435488
0
LINE
8
Layer 1
10
31.303009
20
3.435488
11
30.801633
21
3.670110
0
LINE
8
Layer 1
10
30.801633
20
3.670110
11
30.582482
21
3.460148
0
LINE
8
Layer 1
10
30.582482
20
3.460148
11
30.363328
21
3.127832
0
LINE
8
Layer 1
10
30.363328
20
3.127832
11
30.542059
21
2.839665
0
LINE
8
Layer 1
10
30.542059
20
2.839665
11
30.766609
21
2.743434
0
LINE
8
Layer 1
10
30.766609
20
2.743434
11
30.732875
21
2.843815
0
LINE
8
Layer 1
10
30.732875
20
2.843815
11
30.705551
21
3.000156
0
LINE
8
Layer 1
10
30.705551
20
3.000156
11
30.856466
21
3.128789
0
LINE
8
Layer 1
10
30.856466
20
3.128789
11
31.257836
21
2.859953
0
LINE
8
Layer 1
10
31.257836
20
2.859953
11
31.575387
21
2.633493
0
LINE
8
Layer 1
10
31.575387
20
2.633493
11
32.004316
21
2.643221
0
LINE
8
Layer 1
10
32.004316
20
2.643221
11
32.500064
21
2.573253
0
LINE
8
Layer 1
10
32.500064
20
2.573253
11
32.407176
21
2.293444
0
LINE
8
Layer 1
10
32.407176
20
2.293444
11
32.311402
21
2.162158
0
LINE
8
Layer 1
10
32.311402
20
2.162158
11
32.472790
21
2.185641
0
LINE
8
Layer 1
10
32.472790
20
2.185641
11
32.669696
21
2.170425
0
LINE
8
Layer 1
10
32.669696
20
2.170425
11
32.519904
21
1.964291
0
LINE
8
Layer 1
10
32.519904
20
1.964291
11
32.394212
21
1.757024
0
LINE
8
Layer 1
10
32.394212
20
1.757024
11
32.401949
21
1.283168
0
LINE
8
Layer 1
10
32.401949
20
1.283168
11
32.526110
21
0.630678
0
LINE
8
Layer 1
10
32.526110
20
0.630678
11
32.963376
21
0.732451
0
LINE
8
Layer 1
10
32.963376
20
0.732451
11
32.963379
21
0.732457
0
LINE
8
Layer 1
10
15.779600
20
-22.240600
11
15.623558
21
-21.004100
0
LINE
8
Layer 1
10
15.623558
20
-21.004100
11
15.480271
21
-19.734690
0
LINE
8
Layer 1
10
15.480271
20
-19.734690
11
15.403138
21
-19.421759
0
LINE
8
Layer 1
10
15.403138
20
-19.421759
11
15.249798
21
-18.581141
0
LINE
8
Layer 1
10
15.249798
20
-18.581141
11
14.984845
21
-17.325701
0
LINE
8
Layer 1
10
14.984845
20
-17.325701
11
14.878874
21
-16.708068
0
LINE
8
Layer 1
10
14.878874
20
-16.708068
11
14.721055
21
-16.584247
0
LINE
8
Layer 1
10
14.721055
20
-16.584247
11
14.379845
21
-16.382856
0
LINE
8
Layer 1
10
14.379845
20
-16.382856
11
14.171786
21
-16.056973
0
LINE
8
Layer 1
10
14.171786
20
-16.056973
11
14.280334
21
-14.752436
0
LINE
8
Layer 1
10
14.280334
20
-14.752436
11
14.289422
21
-14.339036
0
LINE
8
Layer 1
10
14.289422
20
-14.339036
11
14.142043
21
-14.080395
0
LINE
8
Layer 1
10
14.142043
20
-14.080395
11
13.974931
21
-13.663845
0
LINE
8
Layer 1
10
13.974931
20
-13.663845
11
13.904706
21
-12.178645
0
LINE
8
Layer 1
10
13.904706
20
-12.178645
11
13.711444
21
-7.566459
0
LINE
8
Layer 1
10
13.711444
20
-7.566459
11
13.495436
21
-5.611965
0
LINE
8
Layer 1
10
13.495436
20
-5.611965
11
13.388479
21
-4.814403
0
LINE
8
Layer 1
10
13.388479
20
-4.814403
11
13.431872
21
-4.497818
0
LINE
8
Layer 1
10
13.431872
20
-4.497818
11
13.142412
21
-4.450357
0
LINE
8
Layer 1
10
13.142412
20
-4.450357
11
12.740945
21
-4.386543
0
LINE
8
Layer 1
10
12.740945
20
-4.386543
11
12.648846
21
-4.177620
0
LINE
8
Layer 1
10
12.648846
20
-4.177620
11
12.633917
21
-4.024879
0
LINE
8
Layer 1
10
12.633917
20
-4.024879
11
12.490419
21
-4.019135
0
LINE
8
Layer 1
10
12.490419
20
-4.019135
11
12.061451
21
-3.918331
0
LINE
8
Layer 1
10
12.061451
20
-3.918331
11
11.568614
21
-3.543800
0
LINE
8
Layer 1
10
11.568614
20
-3.543800
11
11.248840
21
-3.292769
0
LINE
8
Layer 1
10
11.248840
20
-3.292769
11
11.172850
21
-3.186103
0
LINE
8
Layer 1
10
11.172850
20
-3.186103
11
10.464526
21
-2.656767
0
LINE
8
Layer 1
10
10.464526
20
-2.656767
11
9.545006
21
-1.974821
0
LINE
8
Layer 1
10
9.545006
20
-1.974821
11
9.408469
21
-1.629432
0
LINE
8
Layer 1
10
9.408469
20
-1.629432
11
9.380736
21
-1.130907
0
LINE
8
Layer 1
10
9.380736
20
-1.130907
11
9.444092
21
-0.213924
0
LINE
8
Layer 1
10
9.444092
20
-0.213924
11
9.726362
21
0.244043
0
LINE
8
Layer 1
10
9.726362
20
0.244043
11
10.238278
21
1.262183
0
LINE
8
Layer 1
10
10.238278
20
1.262183
11
10.647946
21
2.286653
0
LINE
8
Layer 1
10
10.647946
20
2.286653
11
11.495039
21
3.006827
0
LINE
8
Layer 1
10
11.495039
20
3.006827
11
11.397974
21
3.193009
0
LINE
8
Layer 1
10
11.397974
20
3.193009
11
11.248632
21
3.372237
0
LINE
8
Layer 1
10
11.248632
20
3.372237
11
11.564869
21
3.570111
0
LINE
8
Layer 1
10
11.564869
20
3.570111
11
11.844886
21
3.793049
0
LINE
8
Layer 1
10
11.844886
20
3.793049
11
11.620872
21
4.013208
0
LINE
8
Layer 1
10
11.620872
20
4.013208
11
11.399240
21
4.296862
0
LINE
8
Layer 1
10
11.399240
20
4.296862
11
11.714704
21
4.398373
0
LINE
8
Layer 1
10
11.714704
20
4.398373
11
12.284494
21
4.470627
0
LINE
8
Layer 1
10
12.284494
20
4.470627
11
13.054258
21
4.876065
0
LINE
8
Layer 1
10
13.054258
20
4.876065
11
13.876534
21
5.507077
0
LINE
8
Layer 1
10
13.876534
20
5.507077
11
14.228076
21
5.842650
0
LINE
8
Layer 1
10
14.228076
20
5.842650
11
14.534571
21
5.750822
0
LINE
8
Layer 1
10
14.534571
20
5.750822
11
15.175888
21
5.786864
0
LINE
8
Layer 1
10
15.175888
20
5.786864
11
15.435739
21
5.989706
0
LINE
8
Layer 1
10
15.435739
20
5.989706
11
15.231261
21
5.959570
0
LINE
8
Layer 1
10
15.231261
20
5.959570
11
15.136000
21
5.891842
0
LINE
8
Layer 1
10
15.136000
20
5.891842
11
15.165675
21
5.960501
0
LINE
8
Layer 1
10
15.165675
20
5.960501
11
15.098400
21
6.016186
0
LINE
8
Layer 1
10
15.098400
20
6.016186
11
14.805038
21
5.925140
0
LINE
8
Layer 1
10
14.805038
20
5.925140
11
12.554268
21
6.575868
0
LINE
8
Layer 1
10
12.554268
20
6.575868
11
13.245050
21
6.626150
0
LINE
8
Layer 1
10
13.245050
20
6.626150
11
14.010430
21
6.648406
0
LINE
8
Layer 1
10
14.010430
20
6.648406
11
12.297560
21
7.172235
0
LINE
8
Layer 1
10
12.297560
20
7.172235
11
11.816839
21
7.256789
0
LINE
8
Layer 1
10
11.816839
20
7.256789
11
12.259035
21
7.480389
0
LINE
8
Layer 1
10
12.259035
20
7.480389
11
13.183220
21
7.861682
0
LINE
8
Layer 1
10
13.183220
20
7.861682
11
13.966045
21
7.985712
0
LINE
8
Layer 1
10
13.966045
20
7.985712
11
14.421050
21
7.988819
0
LINE
8
Layer 1
10
14.421050
20
7.988819
11
14.142606
21
8.234946
0
LINE
8
Layer 1
10
14.142606
20
8.234946
11
13.576177
21
8.555928
0
LINE
8
Layer 1
10
13.576177
20
8.555928
11
12.068906
21
9.078605
0
LINE
8
Layer 1
10
12.068906
20
9.078605
11
12.358315
21
9.316563
0
LINE
8
Layer 1
10
12.358315
20
9.316563
11
13.319536
21
9.634179
0
LINE
8
Layer 1
10
13.319536
20
9.634179
11
14.402386
21
9.758716
0
LINE
8
Layer 1
10
14.402386
20
9.758716
11
14.827892
21
9.769951
0
LINE
8
Layer 1
10
14.827892
20
9.769951
11
14.423571
21
10.116801
0
LINE
8
Layer 1
10
14.423571
20
10.116801
11
13.669732
21
10.500563
0
LINE
8
Layer 1
10
13.669732
20
10.500563
11
13.115116
21
10.749170
0
LINE
8
Layer 1
10
13.115116
20
10.749170
11
14.818386
21
10.969456
0
LINE
8
Layer 1
10
14.818386
20
10.969456
11
15.948351
21
10.829611
0
LINE
8
Layer 1
10
15.948351
20
10.829611
11
16.713726
21
10.212244
0
LINE
8
Layer 1
10
16.713726
20
10.212244
11
17.115606
21
9.824000
0
LINE
8
Layer 1
10
17.115606
20
9.824000
11
16.960365
21
10.165223
0
LINE
8
Layer 1
10
16.960365
20
10.165223
11
16.752325
21
10.484094
0
LINE
8
Layer 1
10
16.752325
20
10.484094
11
16.948154
21
10.304273
0
LINE
8
Layer 1
10
16.948154
20
10.304273
11
17.187978
21
9.985836
0
LINE
8
Layer 1
10
17.187978
20
9.985836
11
17.302084
21
9.896181
0
LINE
8
Layer 1
10
17.302084
20
9.896181
11
17.370563
21
10.130079
0
LINE
8
Layer 1
10
17.370563
20
10.130079
11
17.444512
21
10.253336
0
LINE
8
Layer 1
10
17.444512
20
10.253336
11
17.445472
21
9.924867
0
LINE
8
Layer 1
10
17.445472
20
9.924867
11
17.439901
21
9.639211
0
LINE
8
Layer 1
10
17.439901
20
9.639211
11
17.669254
21
9.552604
0
LINE
8
Layer 1
10
17.669254
20
9.552604
11
18.249270
21
9.387845
0
LINE
8
Layer 1
10
18.249270
20
9.387845
11
18.717279
21
9.223474
0
LINE
8
Layer 1
10
18.717279
20
9.223474
11
18.921311
21
9.447200
0
LINE
8
Layer 1
10
18.921311
20
9.447200
11
19.032004
21
9.548932
0
LINE
8
Layer 1
10
19.032004
20
9.548932
11
18.950666
21
9.373352
0
LINE
8
Layer 1
10
18.950666
20
9.373352
11
19.158971
21
9.436780
0
LINE
8
Layer 1
10
19.158971
20
9.436780
11
19.682667
21
9.540715
0
LINE
8
Layer 1
10
19.682667
20
9.540715
11
20.581431
21
9.447603
0
LINE
8
Layer 1
10
20.581431
20
9.447603
11
21.141465
21
9.353874
0
LINE
8
Layer 1
10
21.141465
20
9.353874
11
20.805444
21
9.257757
0
LINE
8
Layer 1
10
20.805444
20
9.257757
11
19.799934
21
8.733450
0
LINE
8
Layer 1
10
19.799934
20
8.733450
11
20.131725
21
8.712286
0
LINE
8
Layer 1
10
20.131725
20
8.712286
11
20.750225
21
8.700266
0
LINE
8
Layer 1
10
20.750225
20
8.700266
11
21.626829
21
8.203403
0
LINE
8
Layer 1
10
21.626829
20
8.203403
11
20.882197
21
7.983099
0
LINE
8
Layer 1
10
20.882197
20
7.983099
11
19.986224
21
7.669315
0
LINE
8
Layer 1
10
19.986224
20
7.669315
11
20.447982
21
7.422574
0
LINE
8
Layer 1
10
20.447982
20
7.422574
11
20.896009
21
7.127254
0
LINE
8
Layer 1
10
20.896009
20
7.127254
11
20.432089
21
6.960156
0
LINE
8
Layer 1
10
20.432089
20
6.960156
11
19.646487
21
6.715711
0
LINE
8
Layer 1
10
19.646487
20
6.715711
11
20.573214
21
6.363449
0
LINE
8
Layer 1
10
20.573214
20
6.363449
11
21.734887
21
6.115827
0
LINE
8
Layer 1
10
21.734887
20
6.115827
11
22.304466
21
5.976964
0
LINE
8
Layer 1
10
22.304466
20
5.976964
11
22.475955
21
5.838101
0
LINE
8
Layer 1
10
22.475955
20
5.838101
11
22.268687
21
5.630834
0
LINE
8
Layer 1
10
22.268687
20
5.630834
11
22.123064
21
5.414174
0
LINE
8
Layer 1
10
22.123064
20
5.414174
11
22.392204
21
5.214644
0
LINE
8
Layer 1
10
22.392204
20
5.214644
11
22.509697
21
5.049933
0
LINE
8
Layer 1
10
22.509697
20
5.049933
11
22.264995
21
4.880389
0
LINE
8
Layer 1
10
22.264995
20
4.880389
11
22.045099
21
4.736829
0
LINE
8
Layer 1
10
22.045099
20
4.736829
11
22.051280
21
4.380167
0
LINE
8
Layer 1
10
22.051280
20
4.380167
11
22.157554
21
3.885335
0
LINE
8
Layer 1
10
22.157554
20
3.885335
11
22.494047
21
3.419904
0
LINE
8
Layer 1
10
22.494047
20
3.419904
11
22.986257
21
2.618566
0
LINE
8
Layer 1
10
22.986257
20
2.618566
11
23.202194
21
2.145489
0
LINE
8
Layer 1
10
23.202194
20
2.145489
11
23.505279
21
2.489814
0
LINE
8
Layer 1
10
23.505279
20
2.489814
11
23.835675
21
2.790514
0
LINE
8
Layer 1
10
23.835675
20
2.790514
11
24.250128
21
2.956956
0
LINE
8
Layer 1
10
24.250128
20
2.956956
11
24.611567
21
3.090637
0
LINE
8
Layer 1
10
24.611567
20
3.090637
11
24.736203
21
3.256329
0
LINE
8
Layer 1
10
24.736203
20
3.256329
11
24.994515
21
3.543541
0
LINE
8
Layer 1
10
24.994515
20
3.543541
11
25.323704
21
3.876955
0
LINE
8
Layer 1
10
25.323704
20
3.876955
11
25.577175
21
4.099704
0
LINE
8
Layer 1
10
25.577175
20
4.099704
11
25.810755
21
4.214534
0
LINE
8
Layer 1
10
25.810755
20
4.214534
11
26.358268
21
4.657316
0
LINE
8
Layer 1
10
26.358268
20
4.657316
11
27.236205
21
4.919508
0
LINE
8
Layer 1
10
27.236205
20
4.919508
11
28.313865
21
5.070203
0
LINE
8
Layer 1
10
28.313865
20
5.070203
11
28.616982
21
5.006178
0
LINE
8
Layer 1
10
28.616982
20
5.006178
11
28.922305
21
4.636826
0
LINE
8
Layer 1
10
28.922305
20
4.636826
11
29.186078
21
4.034539
0
LINE
8
Layer 1
10
29.186078
20
4.034539
11
28.824301
21
3.544836
0
LINE
8
Layer 1
10
28.824301
20
3.544836
11
28.463935
21
3.308088
0
LINE
8
Layer 1
10
28.463935
20
3.308088
11
27.953676
21
3.272867
0
LINE
8
Layer 1
10
27.953676
20
3.272867
11
27.264501
21
3.270610
0
LINE
8
Layer 1
10
27.264501
20
3.270610
11
26.947148
21
3.317111
0
LINE
8
Layer 1
10
26.947148
20
3.317111
11
26.803485
21
3.308041
0
LINE
8
Layer 1
10
26.803485
20
3.308041
11
26.779138
21
2.993368
0
LINE
8
Layer 1
10
26.779138
20
2.993368
11
26.634985
21
2.570583
0
LINE
8
Layer 1
10
26.634985
20
2.570583
11
26.442374
21
2.304202
0
LINE
8
Layer 1
10
26.442374
20
2.304202
11
26.228383
21
2.083572
0
LINE
8
Layer 1
10
26.228383
20
2.083572
11
25.990037
21
1.884713
0
LINE
8
Layer 1
10
25.990037
20
1.884713
11
25.513440
21
1.035162
0
LINE
8
Layer 1
10
25.513440
20
1.035162
11
24.646808
21
-0.301205
0
LINE
8
Layer 1
10
24.646808
20
-0.301205
11
23.661960
21
-0.933338
0
LINE
8
Layer 1
10
23.661960
20
-0.933338
11
23.028537
21
-1.127284
0
LINE
8
Layer 1
10
23.028537
20
-1.127284
11
22.504734
21
-0.735261
0
LINE
8
Layer 1
10
22.504734
20
-0.735261
11
21.884468
21
-0.226166
0
LINE
8
Layer 1
10
21.884468
20
-0.226166
11
21.425874
21
0.333867
0
LINE
8
Layer 1
10
21.425874
20
0.333867
11
20.773513
21
1.135823
0
LINE
8
Layer 1
10
20.773513
20
1.135823
11
20.358711
21
1.471845
0
LINE
8
Layer 1
10
20.358711
20
1.471845
11
20.582955
21
0.702161
0
LINE
8
Layer 1
10
20.582955
20
0.702161
11
20.805895
21
-0.044550
0
LINE
8
Layer 1
10
20.805895
20
-0.044550
11
20.473728
21
-0.716591
0
LINE
8
Layer 1
10
20.473728
20
-0.716591
11
19.908116
21
-1.537976
0
LINE
8
Layer 1
10
19.908116
20
-1.537976
11
19.718624
21
-1.709934
0
LINE
8
Layer 1
10
19.718624
20
-1.709934
11
19.711367
21
-1.975666
0
LINE
8
Layer 1
10
19.711367
20
-1.975666
11
19.940729
21
-2.465115
0
LINE
8
Layer 1
10
19.940729
20
-2.465115
11
20.123041
21
-2.751884
0
LINE
8
Layer 1
10
20.123041
20
-2.751884
11
20.045835
21
-2.977085
0
LINE
8
Layer 1
10
20.045835
20
-2.977085
11
20.186525
21
-3.757401
0
LINE
8
Layer 1
10
20.186525
20
-3.757401
11
20.585558
21
-5.027711
0
LINE
8
Layer 1
10
20.585558
20
-5.027711
11
20.756342
21
-5.605270
0
LINE
8
Layer 1
10
20.756342
20
-5.605270
11
20.538208
21
-6.035774
0
LINE
8
Layer 1
10
20.538208
20
-6.035774
11
20.348562
21
-6.565402
0
LINE
8
Layer 1
10
20.348562
20
-6.565402
11
20.310848
21
-7.623684
0
LINE
8
Layer 1
10
20.310848
20
-7.623684
11
20.149823
21
-9.602474
0
LINE
8
Layer 1
10
20.149823
20
-9.602474
11
19.787686
21
-11.671044
0
LINE
8
Layer 1
10
19.787686
20
-11.671044
11
19.873747
21
-12.182404
0
LINE
8
Layer 1
10
19.873747
20
-12.182404
11
19.971689
21
-12.533791
0
LINE
8
Layer 1
10
19.971689
20
-12.533791
11
19.847918
21
-13.145145
0
LINE
8
Layer 1
10
19.847918
20
-13.145145
11
19.684563
21
-13.802911
0
LINE
8
Layer 1
10
19.684563
20
-13.802911
11
19.913433
21
-14.291993
0
LINE
8
Layer 1
10
19.913433
20
-14.291993
11
20.142302
21
-14.781075
0
LINE
8
Layer 1
10
20.142302
20
-14.781075
11
19.979077
21
-15.160500
0
LINE
8
Layer 1
10
19.979077
20
-15.160500
11
19.572003
21
-15.754030
0
LINE
8
Layer 1
10
19.572003
20
-15.754030
11
19.333767
21
-16.089830
0
LINE
8
Layer 1
10
19.333767
20
-16.089830
11
19.120002
21
-16.956090
0
LINE
8
Layer 1
10
19.120002
20
-16.956090
11
18.994791
21
-18.163780
0
LINE
8
Layer 1
10
18.994791
20
-18.163780
11
19.003757
21
-18.595718
0
LINE
8
Layer 1
10
19.003757
20
-18.595718
11
19.044403
21
-19.412161
0
LINE
8
Layer 1
10
19.044403
20
-19.412161
11
19.084563
21
-20.205582
0
LINE
8
Layer 1
10
19.084563
20
-20.205582
11
18.905885
21
-20.355404
0
LINE
8
Layer 1
10
18.905885
20
-20.355404
11
18.550527
21
-20.431841
0
LINE
8
Layer 1
10
18.550527
20
-20.431841
11
18.250174
21
-20.502404
0
LINE
8
Layer 1
10
18.250174
20
-20.502404
11
18.237221
21
-20.679454
0
LINE
8
Layer 1
10
18.237221
20
-20.679454
11
18.498246
21
-21.352915
0
LINE
8
Layer 1
10
18.498246
20
-21.352915
11
18.699299
21
-21.892762
0
LINE
8
Layer 1
10
18.699299
20
-21.892762
11
18.608523
21
-22.187033
0
LINE
8
Layer 1
10
18.608523
20
-22.187033
11
18.124099
21
-22.309498
0
LINE
8
Layer 1
10
18.124099
20
-22.309498
11
17.144206
21
-22.333927
0
LINE
8
Layer 1
10
17.144206
20
-22.333927
11
15.779606
21
-22.240587
0
LINE
8
Layer 1
10
15.779606
20
-22.240587
11
15.779600
21
-22.240600
0
LINE
8
Layer 1
10
18.490630
20
-21.897483
11
18.346592
21
-21.704034
0
LINE
8
Layer 1
10
18.346592
20
-21.704034
11
17.967423
21
-21.100838
0
LINE
8
Layer 1
10
17.967423
20
-21.100838
11
17.484140
21
-20.510243
0
LINE
8
Layer 1
10
17.484140
20
-20.510243
11
17.153932
21
-20.392486
0
LINE
8
Layer 1
10
17.153932
20
-20.392486
11
16.897852
21
-20.209125
0
LINE
8
Layer 1
10
16.897852
20
-20.209125
11
16.773193
21
-19.832453
0
LINE
8
Layer 1
10
16.773193
20
-19.832453
11
16.879077
21
-19.578719
0
LINE
8
Layer 1
10
16.879077
20
-19.578719
11
17.396031
21
-19.675800
0
LINE
8
Layer 1
10
17.396031
20
-19.675800
11
17.743919
21
-19.715765
0
LINE
8
Layer 1
10
17.743919
20
-19.715765
11
17.095563
21
-19.432937
0
LINE
8
Layer 1
10
17.095563
20
-19.432937
11
16.764064
21
-19.384422
0
LINE
8
Layer 1
10
16.764064
20
-19.384422
11
16.737558
21
-18.899059
0
LINE
8
Layer 1
10
16.737558
20
-18.899059
11
16.631617
21
-17.928334
0
LINE
8
Layer 1
10
16.631617
20
-17.928334
11
16.551810
21
-16.925708
0
LINE
8
Layer 1
10
16.551810
20
-16.925708
11
16.650497
21
-16.369114
0
LINE
8
Layer 1
10
16.650497
20
-16.369114
11
17.005185
21
-16.327992
0
LINE
8
Layer 1
10
17.005185
20
-16.327992
11
17.201985
21
-16.347978
0
LINE
8
Layer 1
10
17.201985
20
-16.347978
11
17.109214
21
-16.250350
0
LINE
8
Layer 1
10
17.109214
20
-16.250350
11
16.779116
21
-16.084355
0
LINE
8
Layer 1
10
16.779116
20
-16.084355
11
15.904395
21
-16.171842
0
LINE
8
Layer 1
10
15.904395
20
-16.171842
11
15.079076
21
-16.407908
0
LINE
8
Layer 1
10
15.079076
20
-16.407908
11
15.071788
21
-16.494527
0
LINE
8
Layer 1
10
15.071788
20
-16.494527
11
15.578449
21
-16.494217
0
LINE
8
Layer 1
10
15.578449
20
-16.494217
11
16.213154
21
-16.472260
0
LINE
8
Layer 1
10
16.213154
20
-16.472260
11
16.265690
21
-17.155045
0
LINE
8
Layer 1
10
16.265690
20
-17.155045
11
16.433700
21
-18.335755
0
LINE
8
Layer 1
10
16.433700
20
-18.335755
11
16.549175
21
-19.115904
0
LINE
8
Layer 1
10
16.549175
20
-19.115904
11
16.505594
21
-19.368754
0
LINE
8
Layer 1
10
16.505594
20
-19.368754
11
16.259349
21
-19.484971
0
LINE
8
Layer 1
10
16.259349
20
-19.484971
11
15.867325
21
-19.696417
0
LINE
8
Layer 1
10
15.867325
20
-19.696417
11
15.812156
21
-19.791421
0
LINE
8
Layer 1
10
15.812156
20
-19.791421
11
15.951806
21
-19.763764
0
LINE
8
Layer 1
10
15.951806
20
-19.763764
11
16.343830
21
-19.667667
0
LINE
8
Layer 1
10
16.343830
20
-19.667667
11
16.518466
21
-19.673250
0
LINE
8
Layer 1
10
16.518466
20
-19.673250
11
16.549176
21
-19.886973
0
LINE
8
Layer 1
10
16.549176
20
-19.886973
11
16.480741
21
-20.155498
0
LINE
8
Layer 1
10
16.480741
20
-20.155498
11
16.175820
21
-20.459929
0
LINE
8
Layer 1
10
16.175820
20
-20.459929
11
15.798057
21
-20.887227
0
LINE
8
Layer 1
10
15.798057
20
-20.887227
11
16.045145
21
-20.826945
0
LINE
8
Layer 1
10
16.045145
20
-20.826945
11
16.776724
21
-20.654013
0
LINE
8
Layer 1
10
16.776724
20
-20.654013
11
17.437478
21
-20.773833
0
LINE
8
Layer 1
10
17.437478
20
-20.773833
11
17.799464
21
-21.198871
0
LINE
8
Layer 1
10
17.799464
20
-21.198871
11
18.215770
21
-21.791144
0
LINE
8
Layer 1
10
18.215770
20
-21.791144
11
18.409158
21
-21.943750
0
LINE
8
Layer 1
10
18.409158
20
-21.943750
11
18.490633
21
-21.897497
0
LINE
8
Layer 1
10
18.490633
20
-21.897497
11
18.490630
21
-21.897483
0
LINE
8
Layer 1
10
18.747001
20
-18.820353
11
18.774385
21
-18.709900
0
LINE
8
Layer 1
10
18.774385
20
-18.709900
11
17.967931
21
-18.828817
0
LINE
8
Layer 1
10
17.967931
20
-18.828817
11
18.301291
21
-18.933824
0
LINE
8
Layer 1
10
18.301291
20
-18.933824
11
18.747001
21
-18.820350
0
LINE
8
Layer 1
10
18.747001
20
-18.820350
11
18.747001
21
-18.820353
0
LINE
8
Layer 1
10
19.162671
20
-16.221053
11
18.408231
21
-16.103671
0
LINE
8
Layer 1
10
18.408231
20
-16.103671
11
18.375226
21
-16.234593
0
LINE
8
Layer 1
10
18.375226
20
-16.234593
11
18.751979
21
-16.285574
0
LINE
8
Layer 1
10
18.751979
20
-16.285574
11
19.162671
21
-16.221052
0
LINE
8
Layer 1
10
19.162671
20
-16.221052
11
19.162671
21
-16.221053
0
LINE
8
Layer 1
10
18.771513
20
-15.099803
11
18.287690
21
-13.933433
0
LINE
8
Layer 1
10
18.287690
20
-13.933433
11
17.728811
21
-12.770806
0
LINE
8
Layer 1
10
17.728811
20
-12.770806
11
17.847517
21
-12.023273
0
LINE
8
Layer 1
10
17.847517
20
-12.023273
11
18.042602
21
-11.249330
0
LINE
8
Layer 1
10
18.042602
20
-11.249330
11
17.706470
21
-9.996720
0
LINE
8
Layer 1
10
17.706470
20
-9.996720
11
17.221107
21
-8.220540
0
LINE
8
Layer 1
10
17.221107
20
-8.220540
11
17.078099
21
-7.050421
0
LINE
8
Layer 1
10
17.078099
20
-7.050421
11
17.139576
21
-6.395950
0
LINE
8
Layer 1
10
17.139576
20
-6.395950
11
17.680942
21
-6.504193
0
LINE
8
Layer 1
10
17.680942
20
-6.504193
11
18.551535
21
-6.689196
0
LINE
8
Layer 1
10
18.551535
20
-6.689196
11
19.200002
21
-6.663166
0
LINE
8
Layer 1
10
19.200002
20
-6.663166
11
19.300297
21
-6.602591
0
LINE
8
Layer 1
10
19.300297
20
-6.602591
11
18.938415
21
-6.584736
0
LINE
8
Layer 1
10
18.938415
20
-6.584736
11
18.063689
21
-6.459890
0
LINE
8
Layer 1
10
18.063689
20
-6.459890
11
17.093755
21
-6.132848
0
LINE
8
Layer 1
10
17.093755
20
-6.132848
11
16.780435
21
-5.953581
0
LINE
8
Layer 1
10
16.780435
20
-5.953581
11
16.612688
21
-5.674168
0
LINE
8
Layer 1
10
16.612688
20
-5.674168
11
16.567152
21
-4.305678
0
LINE
8
Layer 1
10
16.567152
20
-4.305678
11
16.605841
21
-3.180778
0
LINE
8
Layer 1
10
16.605841
20
-3.180778
11
16.420981
21
-3.778149
0
LINE
8
Layer 1
10
16.420981
20
-3.778149
11
16.275615
21
-4.386640
0
LINE
8
Layer 1
10
16.275615
20
-4.386640
11
16.316432
21
-5.047559
0
LINE
8
Layer 1
10
16.316432
20
-5.047559
11
16.310824
21
-5.767574
0
LINE
8
Layer 1
10
16.310824
20
-5.767574
11
15.819636
21
-5.858120
0
LINE
8
Layer 1
10
15.819636
20
-5.858120
11
15.620139
21
-5.900286
0
LINE
8
Layer 1
10
15.620139
20
-5.900286
11
16.175123
21
-6.025241
0
LINE
8
Layer 1
10
16.175123
20
-6.025241
11
16.534888
21
-6.136078
0
LINE
8
Layer 1
10
16.534888
20
-6.136078
11
16.248838
21
-6.251225
0
LINE
8
Layer 1
10
16.248838
20
-6.251225
11
15.908410
21
-6.364117
0
LINE
8
Layer 1
10
15.908410
20
-6.364117
11
15.945343
21
-6.421090
0
LINE
8
Layer 1
10
15.945343
20
-6.421090
11
16.443183
21
-6.307219
0
LINE
8
Layer 1
10
16.443183
20
-6.307219
11
16.972611
21
-6.230152
0
LINE
8
Layer 1
10
16.972611
20
-6.230152
11
16.904951
21
-6.532638
0
LINE
8
Layer 1
10
16.904951
20
-6.532638
11
16.608434
21
-6.915856
0
LINE
8
Layer 1
10
16.608434
20
-6.915856
11
16.189407
21
-7.090623
0
LINE
8
Layer 1
10
16.189407
20
-7.090623
11
15.436734
21
-6.948775
0
LINE
8
Layer 1
10
15.436734
20
-6.948775
11
14.856850
21
-6.827005
0
LINE
8
Layer 1
10
14.856850
20
-6.827005
11
15.973520
21
-7.249517
0
LINE
8
Layer 1
10
15.973520
20
-7.249517
11
16.405216
21
-7.271459
0
LINE
8
Layer 1
10
16.405216
20
-7.271459
11
16.695138
21
-7.067763
0
LINE
8
Layer 1
10
16.695138
20
-7.067763
11
16.865157
21
-6.963999
0
LINE
8
Layer 1
10
16.865157
20
-6.963999
11
16.922637
21
-7.194362
0
LINE
8
Layer 1
10
16.922637
20
-7.194362
11
17.082132
21
-8.270663
0
LINE
8
Layer 1
10
17.082132
20
-8.270663
11
17.515246
21
-9.789782
0
LINE
8
Layer 1
10
17.515246
20
-9.789782
11
17.893261
21
-11.210912
0
LINE
8
Layer 1
10
17.893261
20
-11.210912
11
17.698274
21
-12.024129
0
LINE
8
Layer 1
10
17.698274
20
-12.024129
11
17.503286
21
-12.550177
0
LINE
8
Layer 1
10
17.503286
20
-12.550177
11
17.704459
21
-13.055131
0
LINE
8
Layer 1
10
17.704459
20
-13.055131
11
18.272802
21
-14.203651
0
LINE
8
Layer 1
10
18.272802
20
-14.203651
11
18.639973
21
-15.197453
0
LINE
8
Layer 1
10
18.639973
20
-15.197453
11
18.723212
21
-15.496241
0
LINE
8
Layer 1
10
18.723212
20
-15.496241
11
18.771514
21
-15.099809
0
LINE
8
Layer 1
10
18.771514
20
-15.099809
11
18.771513
21
-15.099803
0
LINE
8
Layer 1
10
15.753343
20
-14.866823
11
16.325164
21
-14.978831
0
LINE
8
Layer 1
10
16.325164
20
-14.978831
11
16.673740
21
-15.084252
0
LINE
8
Layer 1
10
16.673740
20
-15.084252
11
16.565793
21
-14.974598
0
LINE
8
Layer 1
10
16.565793
20
-14.974598
11
16.432424
21
-14.773852
0
LINE
8
Layer 1
10
16.432424
20
-14.773852
11
16.897644
21
-14.717482
0
LINE
8
Layer 1
10
16.897644
20
-14.717482
11
17.353740
21
-14.675769
0
LINE
8
Layer 1
10
17.353740
20
-14.675769
11
15.583790
21
-14.716045
0
LINE
8
Layer 1
10
15.583790
20
-14.716045
11
15.118829
21
-14.942065
0
LINE
8
Layer 1
10
15.118829
20
-14.942065
11
14.943750
21
-15.090028
0
LINE
8
Layer 1
10
14.943750
20
-15.090028
11
15.221369
21
-14.978426
0
LINE
8
Layer 1
10
15.221369
20
-14.978426
11
15.753347
21
-14.866821
0
LINE
8
Layer 1
10
15.753347
20
-14.866821
11
15.753343
21
-14.866823
0
LINE
8
Layer 1
10
19.299583
20
-13.499713
11
19.523642
21
-13.070995
0
LINE
8
Layer 1
10
19.523642
20
-13.070995
11
19.606648
21
-12.477343
0
LINE
8
Layer 1
10
19.606648
20
-12.477343
11
19.541015
21
-12.331396
0
LINE
8
Layer 1
10
19.541015
20
-12.331396
11
19.390483
21
-12.864557
0
LINE
8
Layer 1
10
19.390483
20
-12.864557
11
19.262680
21
-13.257944
0
LINE
8
Layer 1
10
19.262680
20
-13.257944
11
19.009035
21
-13.555072
0
LINE
8
Layer 1
10
19.009035
20
-13.555072
11
18.714646
21
-13.860481
0
LINE
8
Layer 1
10
18.714646
20
-13.860481
11
19.299584
21
-13.499714
0
LINE
8
Layer 1
10
19.299584
20
-13.499714
11
19.299583
21
-13.499713
0
LINE
8
Layer 1
10
16.027733
20
-12.701016
11
16.791670
21
-12.603542
0
LINE
8
Layer 1
10
16.791670
20
-12.603542
11
17.235247
21
-12.529325
0
LINE
8
Layer 1
10
17.235247
20
-12.529325
11
17.202388
21
-12.303337
0
LINE
8
Layer 1
10
17.202388
20
-12.303337
11
17.045220
21
-12.214871
0
LINE
8
Layer 1
10
17.045220
20
-12.214871
11
16.585344
21
-12.333436
0
LINE
8
Layer 1
10
16.585344
20
-12.333436
11
15.503784
21
-12.822868
0
LINE
8
Layer 1
10
15.503784
20
-12.822868
11
15.611120
21
-12.825408
0
LINE
8
Layer 1
10
15.611120
20
-12.825408
11
16.027733
21
-12.700940
0
LINE
8
Layer 1
10
16.027733
20
-12.700940
11
16.027733
21
-12.701016
0
LINE
8
Layer 1
10
18.341293
20
-7.661476
11
18.602642
21
-7.561259
0
LINE
8
Layer 1
10
18.602642
20
-7.561259
11
18.249018
21
-7.571334
0
LINE
8
Layer 1
10
18.249018
20
-7.571334
11
17.907004
21
-7.533298
0
LINE
8
Layer 1
10
17.907004
20
-7.533298
11
17.611164
21
-7.303875
0
LINE
8
Layer 1
10
17.611164
20
-7.303875
11
17.278157
21
-7.038587
0
LINE
8
Layer 1
10
17.278157
20
-7.038587
11
17.527153
21
-7.399690
0
LINE
8
Layer 1
10
17.527153
20
-7.399690
11
17.905835
21
-7.738501
0
LINE
8
Layer 1
10
17.905835
20
-7.738501
11
18.341293
21
-7.661468
0
LINE
8
Layer 1
10
18.341293
20
-7.661468
11
18.341293
21
-7.661476
0
LINE
8
Layer 1
10
13.002300
20
-4.263530
11
12.894700
21
-4.188860
0
LINE
8
Layer 1
10
12.894700
20
-4.188860
11
12.740951
21
-4.263530
0
LINE
8
Layer 1
10
12.740951
20
-4.263530
11
12.848551
21
-4.338200
0
LINE
8
Layer 1
10
12.848551
20
-4.338200
11
13.002300
21
-4.263530
0
LINE
8
Layer 1
10
13.002300
20
-4.263530
11
13.002300
21
-4.263530
0
LINE
8
Layer 1
10
13.412992
20
-4.182637
11
13.321206
21
-4.059684
0
LINE
8
Layer 1
10
13.321206
20
-4.059684
11
13.202171
21
-4.213715
0
LINE
8
Layer 1
10
13.202171
20
-4.213715
11
13.295510
21
-4.338200
0
LINE
8
Layer 1
10
13.295510
20
-4.338200
11
13.412992
21
-4.182636
0
LINE
8
Layer 1
10
13.412992
20
-4.182636
11
13.412992
21
-4.182637
0
LINE
8
Layer 1
10
12.503171
20
-3.825592
11
12.746932
21
-3.333837
0
LINE
8
Layer 1
10
12.746932
20
-3.333837
11
11.844895
21
-3.605498
0
LINE
8
Layer 1
10
11.844895
20
-3.605498
11
12.087577
21
-3.778847
0
LINE
8
Layer 1
10
12.087577
20
-3.778847
11
12.503171
21
-3.825591
0
LINE
8
Layer 1
10
12.503171
20
-3.825591
11
12.503171
21
-3.825592
0
LINE
8
Layer 1
10
13.637001
20
-3.661754
11
13.562330
21
-3.591489
0
LINE
8
Layer 1
10
13.562330
20
-3.591489
11
13.487659
21
-3.707903
0
LINE
8
Layer 1
10
13.487659
20
-3.707903
11
13.562330
21
-3.778168
0
LINE
8
Layer 1
10
13.562330
20
-3.778168
11
13.637001
21
-3.661754
0
LINE
8
Layer 1
10
13.637001
20
-3.661754
11
13.637001
21
-3.661754
0
LINE
8
Layer 1
10
19.194131
20
-3.389517
11
18.809929
21
-2.673455
0
LINE
8
Layer 1
10
18.809929
20
-2.673455
11
18.563807
21
-2.360341
0
LINE
8
Layer 1
10
18.563807
20
-2.360341
11
19.033380
21
-3.352334
0
LINE
8
Layer 1
10
19.033380
20
-3.352334
11
19.360174
21
-3.775151
0
LINE
8
Layer 1
10
19.360174
20
-3.775151
11
19.194131
21
-3.389516
0
LINE
8
Layer 1
10
19.194131
20
-3.389516
11
19.194131
21
-3.389517
0
LINE
8
Layer 1
10
14.674571
20
-3.041475
11
14.708251
21
-2.546329
0
LINE
8
Layer 1
10
14.708251
20
-2.546329
11
14.668719
21
-2.480842
0
LINE
8
Layer 1
10
14.668719
20
-2.480842
11
14.600094
21
-2.588385
0
LINE
8
Layer 1
10
14.600094
20
-2.588385
11
14.563501
21
-3.510596
0
LINE
8
Layer 1
10
14.563501
20
-3.510596
11
14.674571
21
-3.041475
0
LINE
8
Layer 1
10
14.674571
20
-3.041475
11
14.674571
21
-3.041475
0
LINE
8
Layer 1
10
13.783716
20
-2.849685
11
13.861014
21
-2.663006
0
LINE
8
Layer 1
10
13.861014
20
-2.663006
11
13.417788
21
-2.690889
0
LINE
8
Layer 1
10
13.417788
20
-2.690889
11
13.408263
21
-2.876422
0
LINE
8
Layer 1
10
13.408263
20
-2.876422
11
13.610330
21
-2.988257
0
LINE
8
Layer 1
10
13.610330
20
-2.988257
11
13.783715
21
-2.849696
0
LINE
8
Layer 1
10
13.783715
20
-2.849696
11
13.783716
21
-2.849685
0
LINE
8
Layer 1
10
13.861014
20
-2.448797
11
14.008540
21
-2.320380
0
LINE
8
Layer 1
10
14.008540
20
-2.320380
11
14.027064
21
-2.082160
0
LINE
8
Layer 1
10
14.027064
20
-2.082160
11
14.083344
21
-1.763085
0
LINE
8
Layer 1
10
14.083344
20
-1.763085
11
13.778968
21
-1.328105
0
LINE
8
Layer 1
10
13.778968
20
-1.328105
11
13.397684
21
-0.940659
0
LINE
8
Layer 1
10
13.397684
20
-0.940659
11
13.439266
21
0.102291
0
LINE
8
Layer 1
10
13.439266
20
0.102291
11
13.480847
21
1.145241
0
LINE
8
Layer 1
10
13.480847
20
1.145241
11
13.172173
21
0.774331
0
LINE
8
Layer 1
10
13.172173
20
0.774331
11
12.383941
21
-0.051736
0
LINE
8
Layer 1
10
12.383941
20
-0.051736
11
11.904383
21
-0.506887
0
LINE
8
Layer 1
10
11.904383
20
-0.506887
11
12.242713
21
-0.705162
0
LINE
8
Layer 1
10
12.242713
20
-0.705162
11
12.721404
21
-1.064138
0
LINE
8
Layer 1
10
12.721404
20
-1.064138
11
12.762446
21
-1.537979
0
LINE
8
Layer 1
10
12.762446
20
-1.537979
11
12.815276
21
-1.948728
0
LINE
8
Layer 1
10
12.815276
20
-1.948728
11
13.263645
21
-2.437937
0
LINE
8
Layer 1
10
13.263645
20
-2.437937
11
13.465724
21
-2.543547
0
LINE
8
Layer 1
10
13.465724
20
-2.543547
11
13.861015
21
-2.448802
0
LINE
8
Layer 1
10
13.861015
20
-2.448802
11
13.861014
21
-2.448797
0
LINE
8
Layer 1
10
11.906804
20
-2.148160
11
11.856423
21
-1.759169
0
LINE
8
Layer 1
10
11.856423
20
-1.759169
11
11.628756
21
-1.458827
0
LINE
8
Layer 1
10
11.628756
20
-1.458827
11
11.338613
21
-1.340057
0
LINE
8
Layer 1
10
11.338613
20
-1.340057
11
11.100802
21
-1.495784
0
LINE
8
Layer 1
10
11.100802
20
-1.495784
11
11.076638
21
-2.275651
0
LINE
8
Layer 1
10
11.076638
20
-2.275651
11
11.505298
21
-2.306763
0
LINE
8
Layer 1
10
11.505298
20
-2.306763
11
11.906803
21
-2.148160
0
LINE
8
Layer 1
10
11.906803
20
-2.148160
11
11.906804
21
-2.148160
0
LINE
8
Layer 1
10
17.127874
20
-2.172516
11
17.295884
21
-2.015191
0
LINE
8
Layer 1
10
17.295884
20
-2.015191
11
16.040839
21
-1.878270
0
LINE
8
Layer 1
10
16.040839
20
-1.878270
11
14.469804
21
-1.971593
0
LINE
8
Layer 1
10
14.469804
20
-1.971593
11
14.208172
21
-2.119809
0
LINE
8
Layer 1
10
14.208172
20
-2.119809
11
14.367559
21
-2.224347
0
LINE
8
Layer 1
10
14.367559
20
-2.224347
11
15.914474
21
-2.294582
0
LINE
8
Layer 1
10
15.914474
20
-2.294582
11
17.127884
21
-2.172515
0
LINE
8
Layer 1
10
17.127884
20
-2.172515
11
17.127874
21
-2.172516
0
LINE
8
Layer 1
10
14.607700
20
-2.098060
11
15.503755
21
-2.023390
0
LINE
8
Layer 1
10
15.503755
20
-2.023390
11
16.399810
21
-2.098060
0
LINE
8
Layer 1
10
16.399810
20
-2.098060
11
15.503755
21
-2.172733
0
LINE
8
Layer 1
10
15.503755
20
-2.172733
11
14.607700
21
-2.098060
0
LINE
8
Layer 1
10
14.607700
20
-2.098060
11
14.607700
21
-2.098060
0
LINE
8
Layer 1
10
10.463760
20
-2.172222
11
10.347434
21
-1.868424
0
LINE
8
Layer 1
10
10.347434
20
-1.868424
11
10.230309
21
-1.354230
0
LINE
8
Layer 1
10
10.230309
20
-1.354230
11
10.237860
21
-1.104339
0
LINE
8
Layer 1
10
10.237860
20
-1.104339
11
10.071442
21
-1.017319
0
LINE
8
Layer 1
10
10.071442
20
-1.017319
11
9.762711
21
-0.866471
0
LINE
8
Layer 1
10
9.762711
20
-0.866471
11
9.679396
21
-0.573706
0
LINE
8
Layer 1
10
9.679396
20
-0.573706
11
10.015417
21
-0.007267
0
LINE
8
Layer 1
10
10.015417
20
-0.007267
11
10.324740
21
0.367386
0
LINE
8
Layer 1
10
10.324740
20
0.367386
11
10.292313
21
0.515431
0
LINE
8
Layer 1
10
10.292313
20
0.515431
11
9.900289
21
0.176231
0
LINE
8
Layer 1
10
9.900289
20
0.176231
11
9.567389
21
-0.162969
0
LINE
8
Layer 1
10
9.567389
20
-0.162969
11
9.567400
21
-0.949571
0
LINE
8
Layer 1
10
9.567400
20
-0.949571
11
9.567400
21
-1.736180
0
LINE
8
Layer 1
10
9.567400
20
-1.736180
11
9.846321
21
-1.991791
0
LINE
8
Layer 1
10
9.846321
20
-1.991791
11
10.224668
21
-2.231457
0
LINE
8
Layer 1
10
10.224668
20
-2.231457
11
10.463770
21
-2.172221
0
LINE
8
Layer 1
10
10.463770
20
-2.172221
11
10.463760
21
-2.172222
0
LINE
8
Layer 1
10
15.093060
20
-1.762684
11
16.362470
21
-1.690291
0
LINE
8
Layer 1
10
16.362470
20
-1.690291
11
18.709150
21
-1.452338
0
LINE
8
Layer 1
10
18.709150
20
-1.452338
11
17.333200
21
-1.452282
0
LINE
8
Layer 1
10
17.333200
20
-1.452282
11
15.292809
21
-1.596398
0
LINE
8
Layer 1
10
15.292809
20
-1.596398
11
14.275110
21
-1.808737
0
LINE
8
Layer 1
10
14.275110
20
-1.808737
11
14.458358
21
-1.848372
0
LINE
8
Layer 1
10
14.458358
20
-1.848372
11
15.093063
21
-1.762684
0
LINE
8
Layer 1
10
15.093063
20
-1.762684
11
15.093060
21
-1.762684
0
LINE
8
Layer 1
10
12.546250
20
-1.531920
11
12.558044
21
-1.206662
0
LINE
8
Layer 1
10
12.558044
20
-1.206662
11
12.230349
21
-0.911105
0
LINE
8
Layer 1
10
12.230349
20
-0.911105
11
11.782322
21
-0.679308
0
LINE
8
Layer 1
10
11.782322
20
-0.679308
11
11.702031
21
-0.790378
0
LINE
8
Layer 1
10
11.702031
20
-0.790378
11
11.882198
21
-0.977992
0
LINE
8
Layer 1
10
11.882198
20
-0.977992
11
12.069155
21
-1.121285
0
LINE
8
Layer 1
10
12.069155
20
-1.121285
11
12.433146
21
-1.650034
0
LINE
8
Layer 1
10
12.433146
20
-1.650034
11
12.546250
21
-1.531921
0
LINE
8
Layer 1
10
12.546250
20
-1.531921
11
12.546250
21
-1.531920
0
LINE
8
Layer 1
10
18.665920
20
-0.660639
11
18.961487
21
-0.305951
0
LINE
8
Layer 1
10
18.961487
20
-0.305951
11
17.967900
21
-1.219845
0
LINE
8
Layer 1
10
17.967900
20
-1.219845
11
18.665920
21
-0.660639
0
LINE
8
Layer 1
10
18.665920
20
-0.660639
11
18.665920
21
-0.660639
0
LINE
8
Layer 1
10
23.118620
20
-0.809982
11
22.782599
21
-0.200388
0
LINE
8
Layer 1
10
22.782599
20
-0.200388
11
22.447897
21
0.583659
0
LINE
8
Layer 1
10
22.447897
20
0.583659
11
22.295568
21
1.087729
0
LINE
8
Layer 1
10
22.295568
20
1.087729
11
21.892457
21
1.441772
0
LINE
8
Layer 1
10
21.892457
20
1.441772
11
21.632079
21
1.533534
0
LINE
8
Layer 1
10
21.632079
20
1.533534
11
21.435614
21
1.452750
0
LINE
8
Layer 1
10
21.435614
20
1.452750
11
21.269367
21
1.165243
0
LINE
8
Layer 1
10
21.269367
20
1.165243
11
21.575343
21
0.784361
0
LINE
8
Layer 1
10
21.575343
20
0.784361
11
22.154045
21
0.062242
0
LINE
8
Layer 1
10
22.154045
20
0.062242
11
22.623921
21
-0.649705
0
LINE
8
Layer 1
10
22.623921
20
-0.649705
11
22.951086
21
-0.891942
0
LINE
8
Layer 1
10
22.951086
20
-0.891942
11
23.118619
21
-0.809973
0
LINE
8
Layer 1
10
23.118619
20
-0.809973
11
23.118620
21
-0.809982
0
LINE
8
Layer 1
10
10.581220
20
-0.119272
11
10.714613
21
0.354779
0
LINE
8
Layer 1
10
10.714613
20
0.354779
11
9.830814
21
-0.469456
0
LINE
8
Layer 1
10
9.830814
20
-0.469456
11
9.798437
21
-0.750666
0
LINE
8
Layer 1
10
9.798437
20
-0.750666
11
10.105430
21
-0.695420
0
LINE
8
Layer 1
10
10.105430
20
-0.695420
11
10.581220
21
-0.119272
0
LINE
8
Layer 1
10
10.581220
20
-0.119272
11
10.581220
21
-0.119272
0
LINE
8
Layer 1
10
12.083430
20
0.048738
11
12.671202
21
0.706466
0
LINE
8
Layer 1
10
12.671202
20
0.706466
11
12.815559
21
1.216238
0
LINE
8
Layer 1
10
12.815559
20
1.216238
11
12.890241
21
1.672865
0
LINE
8
Layer 1
10
12.890241
20
1.672865
11
12.884628
21
2.020218
0
LINE
8
Layer 1
10
12.884628
20
2.020218
11
12.590503
21
2.158199
0
LINE
8
Layer 1
10
12.590503
20
2.158199
11
11.809082
21
1.616259
0
LINE
8
Layer 1
10
11.809082
20
1.616259
11
11.338579
21
1.116109
0
LINE
8
Layer 1
10
11.338579
20
1.116109
11
11.247463
21
0.789967
0
LINE
8
Layer 1
10
11.247463
20
0.789967
11
11.183121
21
0.379848
0
LINE
8
Layer 1
10
11.183121
20
0.379848
11
11.069641
21
0.048533
0
LINE
8
Layer 1
10
11.069641
20
0.048533
11
11.072819
21
-0.146902
0
LINE
8
Layer 1
10
11.072819
20
-0.146902
11
11.264657
21
-0.305876
0
LINE
8
Layer 1
10
11.264657
20
-0.305876
11
11.534740
21
-0.455016
0
LINE
8
Layer 1
10
11.534740
20
-0.455016
11
12.083429
21
0.048736
0
LINE
8
Layer 1
10
12.083429
20
0.048736
11
12.083430
21
0.048738
0
LINE
8
Layer 1
10
24.116530
20
-0.203662
11
24.677709
21
0.276857
0
LINE
8
Layer 1
10
24.677709
20
0.276857
11
25.094124
21
1.109618
0
LINE
8
Layer 1
10
25.094124
20
1.109618
11
25.227140
21
1.595434
0
LINE
8
Layer 1
10
25.227140
20
1.595434
11
25.134761
21
1.696033
0
LINE
8
Layer 1
10
25.134761
20
1.696033
11
24.315640
21
1.345845
0
LINE
8
Layer 1
10
24.315640
20
1.345845
11
23.490971
21
0.623673
0
LINE
8
Layer 1
10
23.490971
20
0.623673
11
23.280523
21
0.169226
0
LINE
8
Layer 1
10
23.280523
20
0.169226
11
23.418891
21
-0.156609
0
LINE
8
Layer 1
10
23.418891
20
-0.156609
11
23.707107
21
-0.298679
0
LINE
8
Layer 1
10
23.707107
20
-0.298679
11
24.116531
21
-0.203661
0
LINE
8
Layer 1
10
24.116531
20
-0.203661
11
24.116530
21
-0.203662
0
LINE
8
Layer 1
10
16.501020
20
-0.116306
11
17.209899
21
0.108030
0
LINE
8
Layer 1
10
17.209899
20
0.108030
11
17.487963
21
0.376606
0
LINE
8
Layer 1
10
17.487963
20
0.376606
11
17.529766
21
0.590104
0
LINE
8
Layer 1
10
17.529766
20
0.590104
11
17.419854
21
0.482448
0
LINE
8
Layer 1
10
17.419854
20
0.482448
11
17.144919
21
0.230906
0
LINE
8
Layer 1
10
17.144919
20
0.230906
11
16.572182
21
0.027012
0
LINE
8
Layer 1
10
16.572182
20
0.027012
11
15.760938
21
-0.043774
0
LINE
8
Layer 1
10
15.760938
20
-0.043774
11
15.012602
21
0.608770
0
LINE
8
Layer 1
10
15.012602
20
0.608770
11
14.421099
21
1.187472
0
LINE
8
Layer 1
10
14.421099
20
1.187472
11
15.566019
21
-0.154138
0
LINE
8
Layer 1
10
15.566019
20
-0.154138
11
15.902890
21
-0.223273
0
LINE
8
Layer 1
10
15.902890
20
-0.223273
11
16.501019
21
-0.116303
0
LINE
8
Layer 1
10
16.501019
20
-0.116303
11
16.501020
21
-0.116306
0
LINE
8
Layer 1
10
10.709820
20
0.919024
11
11.117761
21
1.273431
0
LINE
8
Layer 1
10
11.117761
20
1.273431
11
11.562236
21
2.064674
0
LINE
8
Layer 1
10
11.562236
20
2.064674
11
11.798825
21
2.837446
0
LINE
8
Layer 1
10
11.798825
20
2.837446
11
11.453658
21
2.767619
0
LINE
8
Layer 1
10
11.453658
20
2.767619
11
10.988366
21
2.361468
0
LINE
8
Layer 1
10
10.988366
20
2.361468
11
10.610410
21
1.664539
0
LINE
8
Layer 1
10
10.610410
20
1.664539
11
10.358415
21
0.894300
0
LINE
8
Layer 1
10
10.358415
20
0.894300
11
10.456765
21
0.821742
0
LINE
8
Layer 1
10
10.456765
20
0.821742
11
10.709819
21
0.919030
0
LINE
8
Layer 1
10
10.709819
20
0.919030
11
10.709820
21
0.919024
0
LINE
8
Layer 1
10
16.852290
20
1.167958
11
17.162356
21
1.468426
0
LINE
8
Layer 1
10
17.162356
20
1.468426
11
16.672336
21
1.301257
0
LINE
8
Layer 1
10
16.672336
20
1.301257
11
16.173652
21
1.112798
0
LINE
8
Layer 1
10
16.173652
20
1.112798
11
16.101110
21
1.374147
0
LINE
8
Layer 1
10
16.101110
20
1.374147
11
16.043812
21
1.620161
0
LINE
8
Layer 1
10
16.043812
20
1.620161
11
15.914432
21
1.560826
0
LINE
8
Layer 1
10
15.914432
20
1.560826
11
15.729570
21
1.486156
0
LINE
8
Layer 1
10
15.729570
20
1.486156
11
15.557522
21
1.392816
0
LINE
8
Layer 1
10
15.557522
20
1.392816
11
15.475080
21
1.344585
0
LINE
8
Layer 1
10
15.475080
20
1.344585
11
15.670140
21
2.419545
0
LINE
8
Layer 1
10
15.670140
20
2.419545
11
15.863430
21
2.768702
0
LINE
8
Layer 1
10
15.863430
20
2.768702
11
16.080433
21
2.904908
0
LINE
8
Layer 1
10
16.080433
20
2.904908
11
16.045183
21
2.699563
0
LINE
8
Layer 1
10
16.045183
20
2.699563
11
15.895463
21
2.327089
0
LINE
8
Layer 1
10
15.895463
20
2.327089
11
15.886511
21
2.159963
0
LINE
8
Layer 1
10
15.886511
20
2.159963
11
16.180489
21
2.309939
0
LINE
8
Layer 1
10
16.180489
20
2.309939
11
16.474467
21
2.526962
0
LINE
8
Layer 1
10
16.474467
20
2.526962
11
16.519792
21
2.712122
0
LINE
8
Layer 1
10
16.519792
20
2.712122
11
16.445121
21
2.830238
0
LINE
8
Layer 1
10
16.445121
20
2.830238
11
16.334676
21
2.953738
0
LINE
8
Layer 1
10
16.334676
20
2.953738
11
16.554868
21
3.234292
0
LINE
8
Layer 1
10
16.554868
20
3.234292
11
16.835901
21
3.418009
0
LINE
8
Layer 1
10
16.835901
20
3.418009
11
16.922495
21
3.319655
0
LINE
8
Layer 1
10
16.922495
20
3.319655
11
17.377696
21
3.468996
0
LINE
8
Layer 1
10
17.377696
20
3.468996
11
17.847281
21
3.726292
0
LINE
8
Layer 1
10
17.847281
20
3.726292
11
17.673425
21
2.526362
0
LINE
8
Layer 1
10
17.673425
20
2.526362
11
17.038403
21
2.065101
0
LINE
8
Layer 1
10
17.038403
20
2.065101
11
16.598311
21
1.811586
0
LINE
8
Layer 1
10
16.598311
20
1.811586
11
16.457231
21
1.603589
0
LINE
8
Layer 1
10
16.457231
20
1.603589
11
16.513039
21
1.411478
0
LINE
8
Layer 1
10
16.513039
20
1.411478
11
17.187093
21
1.749859
0
LINE
8
Layer 1
10
17.187093
20
1.749859
11
17.306561
21
2.065142
0
LINE
8
Layer 1
10
17.306561
20
2.065142
11
17.446870
21
1.949353
0
LINE
8
Layer 1
10
17.446870
20
1.949353
11
17.586794
21
1.777850
0
LINE
8
Layer 1
10
17.586794
20
1.777850
11
17.896337
21
1.935767
0
LINE
8
Layer 1
10
17.896337
20
1.935767
11
18.186192
21
2.152173
0
LINE
8
Layer 1
10
18.186192
20
2.152173
11
18.413192
21
2.555298
0
LINE
8
Layer 1
10
18.413192
20
2.555298
11
18.760083
21
3.481352
0
LINE
8
Layer 1
10
18.760083
20
3.481352
11
18.528278
21
4.141068
0
LINE
8
Layer 1
10
18.528278
20
4.141068
11
18.177421
21
4.743296
0
LINE
8
Layer 1
10
18.177421
20
4.743296
11
18.117234
21
4.965108
0
LINE
8
Layer 1
10
18.117234
20
4.965108
11
17.979805
21
5.182198
0
LINE
8
Layer 1
10
17.979805
20
5.182198
11
17.330596
21
5.110503
0
LINE
8
Layer 1
10
17.330596
20
5.110503
11
16.204816
21
4.732709
0
LINE
8
Layer 1
10
16.204816
20
4.732709
11
15.433016
21
4.179289
0
LINE
8
Layer 1
10
15.433016
20
4.179289
11
15.106525
21
3.647437
0
LINE
8
Layer 1
10
15.106525
20
3.647437
11
14.981045
21
3.177749
0
LINE
8
Layer 1
10
14.981045
20
3.177749
11
14.821563
21
2.891889
0
LINE
8
Layer 1
10
14.821563
20
2.891889
11
14.744391
21
2.640099
0
LINE
8
Layer 1
10
14.744391
20
2.640099
11
15.055760
21
1.926125
0
LINE
8
Layer 1
10
15.055760
20
1.926125
11
15.416063
21
1.256017
0
LINE
8
Layer 1
10
15.416063
20
1.256017
11
15.848672
21
0.966011
0
LINE
8
Layer 1
10
15.848672
20
0.966011
11
16.363325
21
0.912842
0
LINE
8
Layer 1
10
16.363325
20
0.912842
11
16.852292
21
1.167944
0
LINE
8
Layer 1
10
16.852292
20
1.167944
11
16.852290
21
1.167958
0
LINE
8
Layer 1
10
15.578410
20
3.115618
11
15.700358
21
3.609554
0
LINE
8
Layer 1
10
15.700358
20
3.609554
11
15.878508
21
3.948116
0
LINE
8
Layer 1
10
15.878508
20
3.948116
11
16.316396
21
4.197318
0
LINE
8
Layer 1
10
16.316396
20
4.197318
11
16.827693
21
4.485842
0
LINE
8
Layer 1
10
16.827693
20
4.485842
11
16.994790
21
4.723778
0
LINE
8
Layer 1
10
16.994790
20
4.723778
11
16.762563
21
4.725879
0
LINE
8
Layer 1
10
16.762563
20
4.725879
11
16.382675
21
4.456613
0
LINE
8
Layer 1
10
16.382675
20
4.456613
11
16.131143
21
4.281409
0
LINE
8
Layer 1
10
16.131143
20
4.281409
11
16.177770
21
4.527253
0
LINE
8
Layer 1
10
16.177770
20
4.527253
11
16.723682
21
4.867438
0
LINE
8
Layer 1
10
16.723682
20
4.867438
11
17.226687
21
4.936329
0
LINE
8
Layer 1
10
17.226687
20
4.936329
11
17.038125
21
4.539990
0
LINE
8
Layer 1
10
17.038125
20
4.539990
11
16.658459
21
3.965722
0
LINE
8
Layer 1
10
16.658459
20
3.965722
11
16.416104
21
3.680254
0
LINE
8
Layer 1
10
16.416104
20
3.680254
11
15.802426
21
3.312570
0
LINE
8
Layer 1
10
15.802426
20
3.312570
11
15.828996
21
3.232546
0
LINE
8
Layer 1
10
15.828996
20
3.232546
11
15.968384
21
3.311441
0
LINE
8
Layer 1
10
15.968384
20
3.311441
11
16.183281
21
3.422679
0
LINE
8
Layer 1
10
16.183281
20
3.422679
11
16.207492
21
3.327951
0
LINE
8
Layer 1
10
16.207492
20
3.327951
11
15.613215
21
2.979666
0
LINE
8
Layer 1
10
15.613215
20
2.979666
11
15.578413
21
3.115708
0
LINE
8
Layer 1
10
15.578413
20
3.115708
11
15.578410
21
3.115618
0
LINE
8
Layer 1
10
16.455797
20
3.941256
11
16.530519
21
4.118217
0
LINE
8
Layer 1
10
16.530519
20
4.118217
11
16.250451
21
4.024974
0
LINE
8
Layer 1
10
16.250451
20
4.024974
11
15.944339
21
3.762060
0
LINE
8
Layer 1
10
15.944339
20
3.762060
11
16.157112
21
3.741908
0
LINE
8
Layer 1
10
16.157112
20
3.741908
11
16.455797
21
3.941256
0
LINE
8
Layer 1
10
16.455797
20
3.941256
11
16.455797
21
3.941256
0
LINE
8
Layer 1
10
16.692766
20
3.443673
11
16.751458
21
3.892917
0
LINE
8
Layer 1
10
16.751458
20
3.892917
11
16.991251
21
4.020093
0
LINE
8
Layer 1
10
16.991251
20
4.020093
11
17.146506
21
3.978828
0
LINE
8
Layer 1
10
17.146506
20
3.978828
11
16.692766
21
3.443673
0
LINE
8
Layer 1
10
16.692766
20
3.443673
11
16.692766
21
3.443673
0
LINE
8
Layer 1
10
17.256368
20
4.345166
11
17.282657
21
4.695872
0
LINE
8
Layer 1
10
17.282657
20
4.695872
11
17.457627
21
4.604775
0
LINE
8
Layer 1
10
17.457627
20
4.604775
11
17.485487
21
4.407653
0
LINE
8
Layer 1
10
17.485487
20
4.407653
11
17.391825
21
4.259835
0
LINE
8
Layer 1
10
17.391825
20
4.259835
11
17.256370
21
4.345166
0
LINE
8
Layer 1
10
17.256370
20
4.345166
11
17.256368
21
4.345166
0
LINE
8
Layer 1
10
13.635628
20
2.008846
11
13.856596
21
1.810768
0
LINE
8
Layer 1
10
13.856596
20
1.810768
11
14.043400
21
1.643687
0
LINE
8
Layer 1
10
14.043400
20
1.643687
11
13.622899
21
2.270183
0
LINE
8
Layer 1
10
13.622899
20
2.270183
11
13.171402
21
2.865683
0
LINE
8
Layer 1
10
13.171402
20
2.865683
11
13.218148
21
3.277315
0
LINE
8
Layer 1
10
13.218148
20
3.277315
11
13.302119
21
3.950299
0
LINE
8
Layer 1
10
13.302119
20
3.950299
11
13.303648
21
4.079695
0
LINE
8
Layer 1
10
13.303648
20
4.079695
11
13.199045
21
3.816757
0
LINE
8
Layer 1
10
13.199045
20
3.816757
11
13.024094
21
3.387215
0
LINE
8
Layer 1
10
13.024094
20
3.387215
11
12.585154
21
3.575406
0
LINE
8
Layer 1
10
12.585154
20
3.575406
11
12.068860
21
3.740035
0
LINE
8
Layer 1
10
12.068860
20
3.740035
11
12.357841
21
3.516696
0
LINE
8
Layer 1
10
12.357841
20
3.516696
11
12.749865
21
3.229561
0
LINE
8
Layer 1
10
12.749865
20
3.229561
11
12.805381
21
3.131825
0
LINE
8
Layer 1
10
12.805381
20
3.131825
11
12.666230
21
3.144612
0
LINE
8
Layer 1
10
12.666230
20
3.144612
11
12.330209
21
3.238081
0
LINE
8
Layer 1
10
12.330209
20
3.238081
11
12.540670
21
3.057685
0
LINE
8
Layer 1
10
12.540670
20
3.057685
11
12.857266
21
2.750458
0
LINE
8
Layer 1
10
12.857266
20
2.750458
11
12.584157
21
2.660740
0
LINE
8
Layer 1
10
12.584157
20
2.660740
11
12.409847
21
2.661116
0
LINE
8
Layer 1
10
12.409847
20
2.661116
11
12.479552
21
2.609985
0
LINE
8
Layer 1
10
12.479552
20
2.609985
11
12.839984
21
2.536794
0
LINE
8
Layer 1
10
12.839984
20
2.536794
11
13.269344
21
2.313277
0
LINE
8
Layer 1
10
13.269344
20
2.313277
11
13.448973
21
2.061140
0
LINE
8
Layer 1
10
13.448973
20
2.061140
11
13.501073
21
1.697237
0
LINE
8
Layer 1
10
13.501073
20
1.697237
11
13.514532
21
1.299470
0
LINE
8
Layer 1
10
13.514532
20
1.299470
11
13.542500
21
1.654158
0
LINE
8
Layer 1
10
13.542500
20
1.654158
11
13.635628
21
2.008846
0
LINE
8
Layer 1
10
13.635628
20
2.008846
11
13.635628
21
2.008846
0
LINE
8
Layer 1
10
22.719248
20
2.176782
11
22.513736
21
2.884193
0
LINE
8
Layer 1
10
22.513736
20
2.884193
11
22.067832
21
3.484442
0
LINE
8
Layer 1
10
22.067832
20
3.484442
11
21.614679
21
3.830184
0
LINE
8
Layer 1
10
21.614679
20
3.830184
11
21.280521
21
3.763780
0
LINE
8
Layer 1
10
21.280521
20
3.763780
11
21.130182
21
3.525699
0
LINE
8
Layer 1
10
21.130182
20
3.525699
11
21.336080
21
2.863359
0
LINE
8
Layer 1
10
21.336080
20
2.863359
11
21.681564
21
2.236472
0
LINE
8
Layer 1
10
21.681564
20
2.236472
11
22.222082
21
1.770089
0
LINE
8
Layer 1
10
22.222082
20
1.770089
11
22.524380
21
1.607071
0
LINE
8
Layer 1
10
22.524380
20
1.607071
11
22.659120
21
1.689303
0
LINE
8
Layer 1
10
22.659120
20
1.689303
11
22.719248
21
2.176779
0
LINE
8
Layer 1
10
22.719248
20
2.176779
11
22.719248
21
2.176782
0
LINE
8
Layer 1
10
24.370908
20
1.674051
11
24.742872
21
1.929738
0
LINE
8
Layer 1
10
24.742872
20
1.929738
11
25.132370
21
3.019348
0
LINE
8
Layer 1
10
25.132370
20
3.019348
11
24.708623
21
2.954815
0
LINE
8
Layer 1
10
24.708623
20
2.954815
11
23.618073
21
2.415376
0
LINE
8
Layer 1
10
23.618073
20
2.415376
11
23.495746
21
2.104256
0
LINE
8
Layer 1
10
23.495746
20
2.104256
11
23.648323
21
1.757565
0
LINE
8
Layer 1
10
23.648323
20
1.757565
11
23.927002
21
1.571492
0
LINE
8
Layer 1
10
23.927002
20
1.571492
11
24.370909
21
1.674050
0
LINE
8
Layer 1
10
24.370909
20
1.674050
11
24.370908
21
1.674051
0
LINE
8
Layer 1
10
16.019818
20
1.781456
11
16.329782
21
2.057346
0
LINE
8
Layer 1
10
16.329782
20
2.057346
11
16.310983
21
2.232859
0
LINE
8
Layer 1
10
16.310983
20
2.232859
11
15.735714
21
1.809825
0
LINE
8
Layer 1
10
15.735714
20
1.809825
11
15.705653
21
1.646942
0
LINE
8
Layer 1
10
15.705653
20
1.646942
11
16.019818
21
1.781456
0
LINE
8
Layer 1
10
16.019818
20
1.781456
11
16.019818
21
1.781456
0
LINE
8
Layer 1
10
19.466928
20
2.120853
11
19.687811
21
2.606216
0
LINE
8
Layer 1
10
19.687811
20
2.606216
11
19.859878
21
2.294282
0
LINE
8
Layer 1
10
19.859878
20
2.294282
11
20.018604
21
2.028605
0
LINE
8
Layer 1
10
20.018604
20
2.028605
11
19.947476
21
2.379942
0
LINE
8
Layer 1
10
19.947476
20
2.379942
11
19.841801
21
2.931873
0
LINE
8
Layer 1
10
19.841801
20
2.931873
11
19.980740
21
3.421182
0
LINE
8
Layer 1
10
19.980740
20
3.421182
11
20.411384
21
3.937283
0
LINE
8
Layer 1
10
20.411384
20
3.937283
11
21.240790
21
4.417208
0
LINE
8
Layer 1
10
21.240790
20
4.417208
11
21.825006
21
4.747696
0
LINE
8
Layer 1
10
21.825006
20
4.747696
11
21.162532
21
4.517265
0
LINE
8
Layer 1
10
21.162532
20
4.517265
11
20.469100
21
4.258094
0
LINE
8
Layer 1
10
20.469100
20
4.258094
11
20.391295
21
4.279789
0
LINE
8
Layer 1
10
20.391295
20
4.279789
11
20.469382
21
4.398328
0
LINE
8
Layer 1
10
20.469382
20
4.398328
11
20.665829
21
4.547669
0
LINE
8
Layer 1
10
20.665829
20
4.547669
11
20.971609
21
4.702792
0
LINE
8
Layer 1
10
20.971609
20
4.702792
11
21.135377
21
4.818885
0
LINE
8
Layer 1
10
21.135377
20
4.818885
11
21.029417
21
4.804553
0
LINE
8
Layer 1
10
21.029417
20
4.804553
11
20.749400
21
4.716113
0
LINE
8
Layer 1
10
20.749400
20
4.716113
11
20.671830
21
4.795525
0
LINE
8
Layer 1
10
20.671830
20
4.795525
11
20.936078
21
5.160240
0
LINE
8
Layer 1
10
20.936078
20
5.160240
11
21.147986
21
5.411223
0
LINE
8
Layer 1
10
21.147986
20
5.411223
11
20.982141
21
5.310930
0
LINE
8
Layer 1
10
20.982141
20
5.310930
11
20.143345
21
4.340247
0
LINE
8
Layer 1
10
20.143345
20
4.340247
11
19.281335
21
1.840837
0
LINE
8
Layer 1
10
19.281335
20
1.840837
11
19.276968
21
1.658141
0
LINE
8
Layer 1
10
19.276968
20
1.658141
11
19.466935
21
2.120855
0
LINE
8
Layer 1
10
19.466935
20
2.120855
11
19.466928
21
2.120853
0
LINE
8
Layer 1
10
21.136348
20
2.158188
11
20.970260
21
2.854040
0
LINE
8
Layer 1
10
20.970260
20
2.854040
11
20.802205
21
3.148521
0
LINE
8
Layer 1
10
20.802205
20
3.148521
11
20.606908
21
3.190062
0
LINE
8
Layer 1
10
20.606908
20
3.190062
11
20.345500
21
2.943727
0
LINE
8
Layer 1
10
20.345500
20
2.943727
11
20.317252
21
2.522115
0
LINE
8
Layer 1
10
20.317252
20
2.522115
11
20.430886
21
2.143573
0
LINE
8
Layer 1
10
20.430886
20
2.143573
11
20.649827
21
1.878846
0
LINE
8
Layer 1
10
20.649827
20
1.878846
11
20.937500
21
1.798677
0
LINE
8
Layer 1
10
20.937500
20
1.798677
11
21.109682
21
1.869630
0
LINE
8
Layer 1
10
21.109682
20
1.869630
11
21.136347
21
2.158188
0
LINE
8
Layer 1
10
21.136347
20
2.158188
11
21.136348
21
2.158188
0
LINE
8
Layer 1
10
16.990328
20
2.192058
11
17.357605
21
2.452616
0
LINE
8
Layer 1
10
17.357605
20
2.452616
11
17.417614
21
2.658684
0
LINE
8
Layer 1
10
17.417614
20
2.658684
11
16.597650
21
2.139520
0
LINE
8
Layer 1
10
16.597650
20
2.139520
11
16.615817
21
2.021374
0
LINE
8
Layer 1
10
16.615817
20
2.021374
11
16.990328
21
2.192058
0
LINE
8
Layer 1
10
16.990328
20
2.192058
11
16.990328
21
2.192058
0
LINE
8
Layer 1
10
17.305263
20
2.799484
11
17.531674
21
3.076585
0
LINE
8
Layer 1
10
17.531674
20
3.076585
11
17.490840
21
3.277977
0
LINE
8
Layer 1
10
17.490840
20
3.277977
11
16.830297
21
2.876835
0
LINE
8
Layer 1
10
16.830297
20
2.876835
11
16.825106
21
2.644404
0
LINE
8
Layer 1
10
16.825106
20
2.644404
11
17.305263
21
2.799483
0
LINE
8
Layer 1
10
17.305263
20
2.799483
11
17.305263
21
2.799484
0
LINE
8
Layer 1
10
14.061513
20
2.976719
11
13.915420
21
3.289695
0
LINE
8
Layer 1
10
13.915420
20
3.289695
11
14.079888
21
4.013839
0
LINE
8
Layer 1
10
14.079888
20
4.013839
11
14.130037
21
4.361270
0
LINE
8
Layer 1
10
14.130037
20
4.361270
11
13.943915
21
3.939978
0
LINE
8
Layer 1
10
13.943915
20
3.939978
11
13.793369
21
3.261990
0
LINE
8
Layer 1
10
13.793369
20
3.261990
11
13.983055
21
2.910318
0
LINE
8
Layer 1
10
13.983055
20
2.910318
11
14.206497
21
2.765661
0
LINE
8
Layer 1
10
14.206497
20
2.765661
11
14.061515
21
2.976719
0
LINE
8
Layer 1
10
14.061515
20
2.976719
11
14.061513
21
2.976719
0
LINE
8
Layer 1
10
28.589913
20
3.717893
11
28.584864
21
4.042096
0
LINE
8
Layer 1
10
28.584864
20
4.042096
11
28.384283
21
4.024773
0
LINE
8
Layer 1
10
28.384283
20
4.024773
11
28.304104
21
3.826326
0
LINE
8
Layer 1
10
28.304104
20
3.826326
11
28.158159
21
3.726284
0
LINE
8
Layer 1
10
28.158159
20
3.726284
11
27.979739
21
3.649152
0
LINE
8
Layer 1
10
27.979739
20
3.649152
11
28.141835
21
3.503704
0
LINE
8
Layer 1
10
28.141835
20
3.503704
11
28.439982
21
3.468470
0
LINE
8
Layer 1
10
28.439982
20
3.468470
11
28.589913
21
3.717894
0
LINE
8
Layer 1
10
28.589913
20
3.717894
11
28.589913
21
3.717893
0
LINE
8
Layer 1
10
26.508263
20
3.744958
11
26.465185
21
3.987641
0
LINE
8
Layer 1
10
26.465185
20
3.987641
11
26.647532
21
3.769723
0
LINE
8
Layer 1
10
26.647532
20
3.769723
11
26.929872
21
3.599090
0
LINE
8
Layer 1
10
26.929872
20
3.599090
11
27.164742
21
3.849275
0
LINE
8
Layer 1
10
27.164742
20
3.849275
11
27.675142
21
4.183067
0
LINE
8
Layer 1
10
27.675142
20
4.183067
11
28.309847
21
4.407521
0
LINE
8
Layer 1
10
28.309847
20
4.407521
11
28.440513
21
4.498060
0
LINE
8
Layer 1
10
28.440513
20
4.498060
11
28.048498
21
4.547385
0
LINE
8
Layer 1
10
28.048498
20
4.547385
11
27.664986
21
4.591623
0
LINE
8
Layer 1
10
27.664986
20
4.591623
11
27.861820
21
4.648830
0
LINE
8
Layer 1
10
27.861820
20
4.648830
11
28.537025
21
4.915914
0
LINE
8
Layer 1
10
28.537025
20
4.915914
11
27.069795
21
4.769540
0
LINE
8
Layer 1
10
27.069795
20
4.769540
11
25.887595
21
4.037465
0
LINE
8
Layer 1
10
25.887595
20
4.037465
11
26.534539
21
3.508299
0
LINE
8
Layer 1
10
26.534539
20
3.508299
11
26.508264
21
3.744959
0
LINE
8
Layer 1
10
26.508264
20
3.744959
11
26.508263
21
3.744958
0
LINE
8
Layer 1
10
22.112600
20
5.668200
11
22.201182
21
5.850752
0
LINE
8
Layer 1
10
22.201182
20
5.850752
11
21.937616
21
5.810116
0
LINE
8
Layer 1
10
21.937616
20
5.810116
11
21.720625
21
5.694810
0
LINE
8
Layer 1
10
21.720625
20
5.694810
11
21.751275
21
5.568180
0
LINE
8
Layer 1
10
21.751275
20
5.568180
11
21.913749
21
5.527414
0
LINE
8
Layer 1
10
21.913749
20
5.527414
11
22.112600
21
5.668199
0
LINE
8
Layer 1
10
22.112600
20
5.668199
11
22.112600
21
5.668200
0
LINE
8
Layer 1
10
16.401700
20
6.191410
11
17.442973
21
6.630418
0
LINE
8
Layer 1
10
17.442973
20
6.630418
11
18.294490
21
6.683091
0
LINE
8
Layer 1
10
18.294490
20
6.683091
11
18.732600
21
6.664317
0
LINE
8
Layer 1
10
18.732600
20
6.664317
11
18.773429
21
6.713712
0
LINE
8
Layer 1
10
18.773429
20
6.713712
11
18.064052
21
6.833425
0
LINE
8
Layer 1
10
18.064052
20
6.833425
11
17.480342
21
6.829011
0
LINE
8
Layer 1
10
17.480342
20
6.829011
11
16.885132
21
6.580980
0
LINE
8
Layer 1
10
16.885132
20
6.580980
11
16.053071
21
6.140551
0
LINE
8
Layer 1
10
16.053071
20
6.140551
11
15.860532
21
5.966705
0
LINE
8
Layer 1
10
15.860532
20
5.966705
11
16.401692
21
6.191410
0
LINE
8
Layer 1
10
16.401692
20
6.191410
11
16.401700
21
6.191410
 0 
ENDSEC
 0 
EOF